<mxfile host="app.diagrams.net" modified="2024-02-28T17:44:41.632Z" agent="Mozilla/5.0 (Windows NT 10.0; Win64; x64) AppleWebKit/537.36 (KHTML, like Gecko) Chrome/122.0.0.0 Safari/537.36" etag="eCi7KAzWI5aPaXxjdk3B" version="23.1.7" type="github" pages="6">
  <diagram id="C5RBs43oDa-KdzZeNtuy" name="Page-1">
    <mxGraphModel dx="2821" dy="608" grid="1" gridSize="17" guides="1" tooltips="1" connect="1" arrows="1" fold="1" page="1" pageScale="1" pageWidth="1600" pageHeight="900" math="0" shadow="0">
      <root>
        <mxCell id="WIyWlLk6GJQsqaUBKTNV-0" />
        <mxCell id="WIyWlLk6GJQsqaUBKTNV-1" parent="WIyWlLk6GJQsqaUBKTNV-0" />
        <mxCell id="UFizrmwSXkN0FjTKPpJZ-1" style="rounded=0;orthogonalLoop=1;jettySize=auto;html=1;exitX=0;exitY=0.5;exitDx=0;exitDy=0;exitPerimeter=0;entryX=0.5;entryY=0;entryDx=0;entryDy=0;edgeStyle=orthogonalEdgeStyle;" parent="WIyWlLk6GJQsqaUBKTNV-1" source="rgvNhuBk3rXbICDsgrir-2" target="27N3YRcr_eumcYstRPkA-9" edge="1">
          <mxGeometry relative="1" as="geometry">
            <mxPoint x="238" y="561" as="targetPoint" />
          </mxGeometry>
        </mxCell>
        <mxCell id="27N3YRcr_eumcYstRPkA-60" style="edgeStyle=orthogonalEdgeStyle;rounded=0;orthogonalLoop=1;jettySize=auto;html=1;exitX=1;exitY=0.5;exitDx=0;exitDy=0;exitPerimeter=0;entryX=0.5;entryY=0;entryDx=0;entryDy=0;" parent="WIyWlLk6GJQsqaUBKTNV-1" source="rgvNhuBk3rXbICDsgrir-2" target="27N3YRcr_eumcYstRPkA-10" edge="1">
          <mxGeometry relative="1" as="geometry" />
        </mxCell>
        <mxCell id="rgvNhuBk3rXbICDsgrir-2" value="&lt;font color=&quot;#ffffff&quot; style=&quot;font-size: 22px;&quot;&gt;Check type&lt;br&gt;(Admin or Operator)&lt;br&gt;&lt;/font&gt;" style="strokeWidth=2;html=1;shape=mxgraph.flowchart.decision;whiteSpace=wrap;fillColor=#5383FF;" parent="WIyWlLk6GJQsqaUBKTNV-1" vertex="1">
          <mxGeometry x="605.37" y="509" width="319.25" height="136" as="geometry" />
        </mxCell>
        <mxCell id="rgvNhuBk3rXbICDsgrir-5" style="rounded=0;orthogonalLoop=1;jettySize=auto;html=1;exitX=0.5;exitY=1;exitDx=0;exitDy=0;entryX=0.5;entryY=0;entryDx=0;entryDy=0;" parent="WIyWlLk6GJQsqaUBKTNV-1" source="27N3YRcr_eumcYstRPkA-3" target="27N3YRcr_eumcYstRPkA-7" edge="1">
          <mxGeometry relative="1" as="geometry">
            <mxPoint x="781" y="105" as="sourcePoint" />
          </mxGeometry>
        </mxCell>
        <mxCell id="rgvNhuBk3rXbICDsgrir-9" value="&lt;font style=&quot;font-size: 22px;&quot;&gt;Administrator&lt;/font&gt;" style="text;html=1;strokeColor=none;fillColor=none;align=center;verticalAlign=middle;whiteSpace=wrap;rounded=0;" parent="WIyWlLk6GJQsqaUBKTNV-1" vertex="1">
          <mxGeometry x="494" y="544" width="60" height="30" as="geometry" />
        </mxCell>
        <mxCell id="UFizrmwSXkN0FjTKPpJZ-5" style="rounded=0;orthogonalLoop=1;jettySize=auto;html=1;entryX=0.5;entryY=0;entryDx=0;entryDy=0;" parent="WIyWlLk6GJQsqaUBKTNV-1" target="27N3YRcr_eumcYstRPkA-14" edge="1">
          <mxGeometry relative="1" as="geometry">
            <mxPoint x="266.5049999999992" y="999" as="targetPoint" />
            <mxPoint x="267" y="884" as="sourcePoint" />
          </mxGeometry>
        </mxCell>
        <mxCell id="27N3YRcr_eumcYstRPkA-5" style="edgeStyle=orthogonalEdgeStyle;rounded=0;orthogonalLoop=1;jettySize=auto;html=1;exitX=0.5;exitY=1;exitDx=0;exitDy=0;exitPerimeter=0;" parent="WIyWlLk6GJQsqaUBKTNV-1" source="27N3YRcr_eumcYstRPkA-2" target="27N3YRcr_eumcYstRPkA-3" edge="1">
          <mxGeometry relative="1" as="geometry" />
        </mxCell>
        <mxCell id="27N3YRcr_eumcYstRPkA-2" value="&lt;font color=&quot;#ffffff&quot; style=&quot;&quot;&gt;&lt;font style=&quot;font-size: 37px;&quot;&gt;Start&lt;/font&gt;&lt;br&gt;&lt;/font&gt;" style="strokeWidth=2;html=1;shape=mxgraph.flowchart.terminator;whiteSpace=wrap;fillColor=#06C892;gradientColor=none;" parent="WIyWlLk6GJQsqaUBKTNV-1" vertex="1">
          <mxGeometry x="697" y="153" width="136" height="65" as="geometry" />
        </mxCell>
        <mxCell id="27N3YRcr_eumcYstRPkA-3" value="&lt;font style=&quot;font-size: 37px;&quot;&gt;Login&lt;/font&gt;" style="rounded=1;whiteSpace=wrap;html=1;strokeWidth=1;fillColor=#20C8C2;" parent="WIyWlLk6GJQsqaUBKTNV-1" vertex="1">
          <mxGeometry x="705.5" y="272" width="119" height="51" as="geometry" />
        </mxCell>
        <mxCell id="27N3YRcr_eumcYstRPkA-7" value="&lt;font style=&quot;font-size: 37px;&quot;&gt;Enter Credentials&lt;/font&gt;" style="rounded=1;whiteSpace=wrap;html=1;strokeWidth=1;fillColor=#20C8C2;" parent="WIyWlLk6GJQsqaUBKTNV-1" vertex="1">
          <mxGeometry x="612" y="374" width="306" height="68" as="geometry" />
        </mxCell>
        <mxCell id="27N3YRcr_eumcYstRPkA-8" style="rounded=0;orthogonalLoop=1;jettySize=auto;html=1;entryX=0.5;entryY=0;entryDx=0;entryDy=0;entryPerimeter=0;" parent="WIyWlLk6GJQsqaUBKTNV-1" source="27N3YRcr_eumcYstRPkA-7" target="rgvNhuBk3rXbICDsgrir-2" edge="1">
          <mxGeometry relative="1" as="geometry" />
        </mxCell>
        <mxCell id="27N3YRcr_eumcYstRPkA-12" value="" style="rounded=0;orthogonalLoop=1;jettySize=auto;html=1;entryX=0.5;entryY=0;entryDx=0;entryDy=0;entryPerimeter=0;exitX=0.5;exitY=1;exitDx=0;exitDy=0;" parent="WIyWlLk6GJQsqaUBKTNV-1" source="27N3YRcr_eumcYstRPkA-9" target="27N3YRcr_eumcYstRPkA-11" edge="1">
          <mxGeometry relative="1" as="geometry">
            <mxPoint x="529.7277669902915" y="710" as="sourcePoint" />
          </mxGeometry>
        </mxCell>
        <mxCell id="27N3YRcr_eumcYstRPkA-9" value="&lt;font color=&quot;#ffffff&quot; style=&quot;font-size: 22px;&quot;&gt;Admin Dashboard&lt;/font&gt;" style="rounded=1;whiteSpace=wrap;html=1;absoluteArcSize=1;arcSize=14;strokeWidth=2;fillColor=#004243;" parent="WIyWlLk6GJQsqaUBKTNV-1" vertex="1">
          <mxGeometry x="342" y="637" width="220" height="68" as="geometry" />
        </mxCell>
        <mxCell id="27N3YRcr_eumcYstRPkA-10" value="&lt;font color=&quot;#ffffff&quot; style=&quot;font-size: 22px;&quot;&gt;Operator Dashboard&lt;/font&gt;" style="rounded=1;whiteSpace=wrap;html=1;absoluteArcSize=1;arcSize=14;strokeWidth=2;fillColor=#004243;" parent="WIyWlLk6GJQsqaUBKTNV-1" vertex="1">
          <mxGeometry x="943" y="635" width="245" height="69" as="geometry" />
        </mxCell>
        <mxCell id="27N3YRcr_eumcYstRPkA-18" style="rounded=0;orthogonalLoop=1;jettySize=auto;html=1;exitX=0.5;exitY=1;exitDx=0;exitDy=0;exitPerimeter=0;" parent="WIyWlLk6GJQsqaUBKTNV-1" source="27N3YRcr_eumcYstRPkA-11" edge="1">
          <mxGeometry relative="1" as="geometry">
            <mxPoint x="452" y="884" as="targetPoint" />
          </mxGeometry>
        </mxCell>
        <mxCell id="27N3YRcr_eumcYstRPkA-11" value="&lt;font color=&quot;#ffffff&quot; style=&quot;&quot;&gt;&lt;font style=&quot;font-size: 25px;&quot;&gt;Choose Action&lt;/font&gt;&lt;br&gt;&lt;/font&gt;" style="strokeWidth=2;html=1;shape=mxgraph.flowchart.decision;whiteSpace=wrap;fillColor=#5383FF;" parent="WIyWlLk6GJQsqaUBKTNV-1" vertex="1">
          <mxGeometry x="341.38" y="748" width="220.62" height="102" as="geometry" />
        </mxCell>
        <mxCell id="27N3YRcr_eumcYstRPkA-13" value="&lt;font color=&quot;#ffffff&quot; style=&quot;font-size: 22px;&quot;&gt;Add Crime&lt;/font&gt;" style="rounded=1;whiteSpace=wrap;html=1;absoluteArcSize=1;arcSize=14;strokeWidth=2;fillColor=#004243;" parent="WIyWlLk6GJQsqaUBKTNV-1" vertex="1">
          <mxGeometry y="935" width="153" height="68" as="geometry" />
        </mxCell>
        <mxCell id="27N3YRcr_eumcYstRPkA-14" value="&lt;font color=&quot;#ffffff&quot; style=&quot;font-size: 22px;&quot;&gt;Manage Crime&lt;/font&gt;" style="rounded=1;whiteSpace=wrap;html=1;absoluteArcSize=1;arcSize=14;strokeWidth=2;fillColor=#004243;" parent="WIyWlLk6GJQsqaUBKTNV-1" vertex="1">
          <mxGeometry x="178" y="935" width="177.01" height="68" as="geometry" />
        </mxCell>
        <mxCell id="27N3YRcr_eumcYstRPkA-15" value="&lt;font color=&quot;#ffffff&quot; style=&quot;font-size: 22px;&quot;&gt;Manage Operator&lt;/font&gt;" style="rounded=1;whiteSpace=wrap;html=1;absoluteArcSize=1;arcSize=14;strokeWidth=2;fillColor=#004243;" parent="WIyWlLk6GJQsqaUBKTNV-1" vertex="1">
          <mxGeometry x="567" y="937" width="195.01" height="68" as="geometry" />
        </mxCell>
        <mxCell id="27N3YRcr_eumcYstRPkA-16" value="&lt;font color=&quot;#ffffff&quot; style=&quot;font-size: 22px;&quot;&gt;Add Operator&lt;/font&gt;" style="rounded=1;whiteSpace=wrap;html=1;absoluteArcSize=1;arcSize=14;strokeWidth=2;fillColor=#004243;" parent="WIyWlLk6GJQsqaUBKTNV-1" vertex="1">
          <mxGeometry x="378" y="935" width="168" height="68" as="geometry" />
        </mxCell>
        <mxCell id="27N3YRcr_eumcYstRPkA-57" style="edgeStyle=orthogonalEdgeStyle;rounded=0;orthogonalLoop=1;jettySize=auto;html=1;entryX=1;entryY=0.5;entryDx=0;entryDy=0;" parent="WIyWlLk6GJQsqaUBKTNV-1" source="27N3YRcr_eumcYstRPkA-17" target="27N3YRcr_eumcYstRPkA-3" edge="1">
          <mxGeometry relative="1" as="geometry">
            <Array as="points">
              <mxPoint x="834" y="1088" />
              <mxPoint x="1394" y="1088" />
              <mxPoint x="1394" y="298" />
            </Array>
          </mxGeometry>
        </mxCell>
        <mxCell id="27N3YRcr_eumcYstRPkA-17" value="&lt;font color=&quot;#ffffff&quot; style=&quot;font-size: 22px;&quot;&gt;Logout&lt;/font&gt;" style="rounded=1;whiteSpace=wrap;html=1;absoluteArcSize=1;arcSize=14;strokeWidth=2;fillColor=#004243;" parent="WIyWlLk6GJQsqaUBKTNV-1" vertex="1">
          <mxGeometry x="784" y="937" width="100" height="68" as="geometry" />
        </mxCell>
        <mxCell id="27N3YRcr_eumcYstRPkA-20" style="rounded=0;orthogonalLoop=1;jettySize=auto;html=1;entryX=0.5;entryY=0;entryDx=0;entryDy=0;" parent="WIyWlLk6GJQsqaUBKTNV-1" target="27N3YRcr_eumcYstRPkA-16" edge="1">
          <mxGeometry relative="1" as="geometry">
            <mxPoint x="284" y="1076" as="targetPoint" />
            <mxPoint x="462" y="884" as="sourcePoint" />
          </mxGeometry>
        </mxCell>
        <mxCell id="27N3YRcr_eumcYstRPkA-21" style="rounded=0;orthogonalLoop=1;jettySize=auto;html=1;entryX=0.5;entryY=0;entryDx=0;entryDy=0;" parent="WIyWlLk6GJQsqaUBKTNV-1" target="27N3YRcr_eumcYstRPkA-15" edge="1">
          <mxGeometry relative="1" as="geometry">
            <mxPoint x="553.4949999999999" y="1037" as="targetPoint" />
            <mxPoint x="665" y="884" as="sourcePoint" />
          </mxGeometry>
        </mxCell>
        <mxCell id="27N3YRcr_eumcYstRPkA-22" style="rounded=0;orthogonalLoop=1;jettySize=auto;html=1;entryX=0.5;entryY=0;entryDx=0;entryDy=0;strokeWidth=0;" parent="WIyWlLk6GJQsqaUBKTNV-1" edge="1">
          <mxGeometry relative="1" as="geometry">
            <mxPoint x="585.5899999999999" y="1042" as="targetPoint" />
            <mxPoint x="586.5899999999999" y="957" as="sourcePoint" />
          </mxGeometry>
        </mxCell>
        <mxCell id="27N3YRcr_eumcYstRPkA-31" value="" style="endArrow=classic;startArrow=classic;html=1;rounded=0;exitX=0.5;exitY=0;exitDx=0;exitDy=0;entryX=0.25;entryY=0;entryDx=0;entryDy=0;edgeStyle=orthogonalEdgeStyle;" parent="WIyWlLk6GJQsqaUBKTNV-1" source="27N3YRcr_eumcYstRPkA-13" target="27N3YRcr_eumcYstRPkA-17" edge="1">
          <mxGeometry width="50" height="50" relative="1" as="geometry">
            <mxPoint x="785" y="803" as="sourcePoint" />
            <mxPoint x="818" y="1020" as="targetPoint" />
            <Array as="points">
              <mxPoint x="77" y="884" />
              <mxPoint x="809" y="884" />
            </Array>
          </mxGeometry>
        </mxCell>
        <mxCell id="27N3YRcr_eumcYstRPkA-49" value="" style="rounded=0;orthogonalLoop=1;jettySize=auto;html=1;entryX=0.5;entryY=0;entryDx=0;entryDy=0;entryPerimeter=0;exitX=0.5;exitY=1;exitDx=0;exitDy=0;" parent="WIyWlLk6GJQsqaUBKTNV-1" source="27N3YRcr_eumcYstRPkA-10" target="27N3YRcr_eumcYstRPkA-51" edge="1">
          <mxGeometry relative="1" as="geometry">
            <mxPoint x="1064" y="712" as="sourcePoint" />
          </mxGeometry>
        </mxCell>
        <mxCell id="27N3YRcr_eumcYstRPkA-50" style="rounded=0;orthogonalLoop=1;jettySize=auto;html=1;exitX=0.5;exitY=1;exitDx=0;exitDy=0;exitPerimeter=0;" parent="WIyWlLk6GJQsqaUBKTNV-1" source="27N3YRcr_eumcYstRPkA-51" edge="1">
          <mxGeometry relative="1" as="geometry">
            <mxPoint x="1066" y="882" as="targetPoint" />
            <mxPoint x="1116.500000000001" y="847.9999999999998" as="sourcePoint" />
          </mxGeometry>
        </mxCell>
        <mxCell id="27N3YRcr_eumcYstRPkA-51" value="&lt;font color=&quot;#ffffff&quot; style=&quot;&quot;&gt;&lt;font style=&quot;font-size: 25px;&quot;&gt;Choose Action&lt;/font&gt;&lt;br&gt;&lt;/font&gt;" style="strokeWidth=2;html=1;shape=mxgraph.flowchart.decision;whiteSpace=wrap;fillColor=#5383FF;" parent="WIyWlLk6GJQsqaUBKTNV-1" vertex="1">
          <mxGeometry x="955.19" y="746" width="220.62" height="102" as="geometry" />
        </mxCell>
        <mxCell id="27N3YRcr_eumcYstRPkA-52" value="" style="endArrow=classic;startArrow=classic;html=1;rounded=0;exitX=0.75;exitY=0;exitDx=0;exitDy=0;entryX=0.5;entryY=0;entryDx=0;entryDy=0;edgeStyle=orthogonalEdgeStyle;" parent="WIyWlLk6GJQsqaUBKTNV-1" source="27N3YRcr_eumcYstRPkA-17" target="27N3YRcr_eumcYstRPkA-56" edge="1">
          <mxGeometry width="50" height="50" relative="1" as="geometry">
            <mxPoint x="748" y="935" as="sourcePoint" />
            <mxPoint x="1232" y="950" as="targetPoint" />
            <Array as="points">
              <mxPoint x="859" y="882" />
              <mxPoint x="1212" y="882" />
            </Array>
          </mxGeometry>
        </mxCell>
        <mxCell id="27N3YRcr_eumcYstRPkA-56" value="&lt;font color=&quot;#ffffff&quot; style=&quot;font-size: 22px;&quot;&gt;View Crime&lt;/font&gt;" style="rounded=1;whiteSpace=wrap;html=1;absoluteArcSize=1;arcSize=14;strokeWidth=2;fillColor=#004243;" parent="WIyWlLk6GJQsqaUBKTNV-1" vertex="1">
          <mxGeometry x="1130" y="935" width="163" height="68" as="geometry" />
        </mxCell>
        <mxCell id="rgvNhuBk3rXbICDsgrir-10" value="&lt;font style=&quot;font-size: 22px;&quot;&gt;Operator&lt;/font&gt;" style="text;html=1;strokeColor=none;fillColor=none;align=center;verticalAlign=middle;whiteSpace=wrap;rounded=0;" parent="WIyWlLk6GJQsqaUBKTNV-1" vertex="1">
          <mxGeometry x="955.19" y="544" width="60" height="30" as="geometry" />
        </mxCell>
      </root>
    </mxGraphModel>
  </diagram>
  <diagram id="xfWsqFp47MhAP24NN2qt" name="Page-2">
    <mxGraphModel dx="1400" dy="743" grid="1" gridSize="17" guides="1" tooltips="1" connect="1" arrows="1" fold="1" page="1" pageScale="1" pageWidth="1600" pageHeight="900" math="0" shadow="0">
      <root>
        <mxCell id="0" />
        <mxCell id="1" parent="0" />
        <mxCell id="udABmW88HRmxGUMknRCP-5" style="edgeStyle=orthogonalEdgeStyle;rounded=0;orthogonalLoop=1;jettySize=auto;html=1;exitX=0.5;exitY=1;exitDx=0;exitDy=0;" parent="1" source="ni0S8WEu9q0LGQrETlCc-1" target="udABmW88HRmxGUMknRCP-1" edge="1">
          <mxGeometry relative="1" as="geometry" />
        </mxCell>
        <mxCell id="ni0S8WEu9q0LGQrETlCc-1" value="&lt;font color=&quot;#ffffff&quot; style=&quot;font-size: 22px;&quot;&gt;Add Operator&lt;/font&gt;" style="rounded=1;whiteSpace=wrap;html=1;absoluteArcSize=1;arcSize=14;strokeWidth=2;fillColor=#004243;" parent="1" vertex="1">
          <mxGeometry x="170" y="204" width="170" height="68" as="geometry" />
        </mxCell>
        <mxCell id="L3BWW2fsp2-KT5__wSaa-8" style="edgeStyle=orthogonalEdgeStyle;rounded=0;orthogonalLoop=1;jettySize=auto;html=1;exitX=0.5;exitY=1;exitDx=0;exitDy=0;entryX=0.5;entryY=0;entryDx=0;entryDy=0;" parent="1" source="-xi-sshaKa-TFN6DW2mC-1" target="93SCa4UGkXdUcIN7ek_4-1" edge="1">
          <mxGeometry relative="1" as="geometry" />
        </mxCell>
        <mxCell id="-xi-sshaKa-TFN6DW2mC-1" value="&lt;font color=&quot;#ffffff&quot; style=&quot;font-size: 22px;&quot;&gt;Update Operator&lt;/font&gt;" style="rounded=1;whiteSpace=wrap;html=1;absoluteArcSize=1;arcSize=14;strokeWidth=2;fillColor=#004243;" parent="1" vertex="1">
          <mxGeometry x="493" y="204" width="187" height="68" as="geometry" />
        </mxCell>
        <mxCell id="L3BWW2fsp2-KT5__wSaa-5" style="edgeStyle=orthogonalEdgeStyle;rounded=0;orthogonalLoop=1;jettySize=auto;html=1;exitX=0.5;exitY=1;exitDx=0;exitDy=0;entryX=0.5;entryY=0;entryDx=0;entryDy=0;" parent="1" source="-xi-sshaKa-TFN6DW2mC-2" target="L3BWW2fsp2-KT5__wSaa-1" edge="1">
          <mxGeometry relative="1" as="geometry" />
        </mxCell>
        <mxCell id="-xi-sshaKa-TFN6DW2mC-2" value="&lt;font color=&quot;#ffffff&quot; style=&quot;font-size: 22px;&quot;&gt;View Operator&lt;/font&gt;" style="rounded=1;whiteSpace=wrap;html=1;absoluteArcSize=1;arcSize=14;strokeWidth=2;fillColor=#004243;" parent="1" vertex="1">
          <mxGeometry x="850" y="204" width="187" height="68" as="geometry" />
        </mxCell>
        <mxCell id="L3BWW2fsp2-KT5__wSaa-3" style="edgeStyle=orthogonalEdgeStyle;rounded=0;orthogonalLoop=1;jettySize=auto;html=1;exitX=0.5;exitY=1;exitDx=0;exitDy=0;entryX=0.5;entryY=0;entryDx=0;entryDy=0;" parent="1" source="-xi-sshaKa-TFN6DW2mC-3" target="L3BWW2fsp2-KT5__wSaa-2" edge="1">
          <mxGeometry relative="1" as="geometry" />
        </mxCell>
        <mxCell id="-xi-sshaKa-TFN6DW2mC-3" value="&lt;font color=&quot;#ffffff&quot; style=&quot;font-size: 22px;&quot;&gt;Delete Operator&lt;/font&gt;" style="rounded=1;whiteSpace=wrap;html=1;absoluteArcSize=1;arcSize=14;strokeWidth=2;fillColor=#004243;" parent="1" vertex="1">
          <mxGeometry x="1190" y="204" width="187" height="68" as="geometry" />
        </mxCell>
        <mxCell id="udABmW88HRmxGUMknRCP-11" style="edgeStyle=orthogonalEdgeStyle;rounded=0;orthogonalLoop=1;jettySize=auto;html=1;exitX=0.5;exitY=1;exitDx=0;exitDy=0;entryX=0;entryY=0.5;entryDx=0;entryDy=0;" parent="1" source="udABmW88HRmxGUMknRCP-1" target="udABmW88HRmxGUMknRCP-9" edge="1">
          <mxGeometry relative="1" as="geometry" />
        </mxCell>
        <mxCell id="udABmW88HRmxGUMknRCP-1" value="&lt;font color=&quot;#ffffff&quot; style=&quot;font-size: 22px;&quot;&gt;Add Operator Info&lt;/font&gt;" style="shape=parallelogram;html=1;strokeWidth=2;perimeter=parallelogramPerimeter;whiteSpace=wrap;rounded=1;arcSize=12;size=0.23;fillColor=#3139A8;" parent="1" vertex="1">
          <mxGeometry x="127.5" y="476" width="255" height="68" as="geometry" />
        </mxCell>
        <mxCell id="W_jned175tNMwe_q3tll-2" style="edgeStyle=orthogonalEdgeStyle;rounded=0;orthogonalLoop=1;jettySize=auto;html=1;exitX=0.5;exitY=1;exitDx=0;exitDy=0;entryX=0.25;entryY=0;entryDx=0;entryDy=0;" parent="1" source="udABmW88HRmxGUMknRCP-2" target="udABmW88HRmxGUMknRCP-9" edge="1">
          <mxGeometry relative="1" as="geometry" />
        </mxCell>
        <mxCell id="udABmW88HRmxGUMknRCP-2" value="&lt;font color=&quot;#ffffff&quot; style=&quot;font-size: 22px;&quot;&gt;Update Operator Info&lt;/font&gt;" style="shape=parallelogram;html=1;strokeWidth=2;perimeter=parallelogramPerimeter;whiteSpace=wrap;rounded=1;arcSize=12;size=0.23;fillColor=#3139A8;" parent="1" vertex="1">
          <mxGeometry x="442" y="539" width="289" height="68" as="geometry" />
        </mxCell>
        <mxCell id="W_jned175tNMwe_q3tll-3" style="edgeStyle=orthogonalEdgeStyle;rounded=0;orthogonalLoop=1;jettySize=auto;html=1;exitX=0.5;exitY=1;exitDx=0;exitDy=0;entryX=0.75;entryY=0;entryDx=0;entryDy=0;" parent="1" source="udABmW88HRmxGUMknRCP-3" target="udABmW88HRmxGUMknRCP-9" edge="1">
          <mxGeometry relative="1" as="geometry" />
        </mxCell>
        <mxCell id="udABmW88HRmxGUMknRCP-3" value="&lt;font color=&quot;#ffffff&quot; style=&quot;font-size: 22px;&quot;&gt;Show Operator Info&lt;/font&gt;" style="rounded=1;whiteSpace=wrap;html=1;absoluteArcSize=1;arcSize=14;strokeWidth=2;fillColor=#004243;" parent="1" vertex="1">
          <mxGeometry x="850" y="539" width="187" height="68" as="geometry" />
        </mxCell>
        <mxCell id="W_jned175tNMwe_q3tll-4" style="edgeStyle=orthogonalEdgeStyle;rounded=0;orthogonalLoop=1;jettySize=auto;html=1;exitX=0.5;exitY=1;exitDx=0;exitDy=0;entryX=1;entryY=0.5;entryDx=0;entryDy=0;" parent="1" source="udABmW88HRmxGUMknRCP-4" target="udABmW88HRmxGUMknRCP-9" edge="1">
          <mxGeometry relative="1" as="geometry" />
        </mxCell>
        <mxCell id="udABmW88HRmxGUMknRCP-4" value="&lt;font color=&quot;#ffffff&quot; style=&quot;font-size: 22px;&quot;&gt;Delete Operator Info&lt;/font&gt;" style="rounded=1;whiteSpace=wrap;html=1;absoluteArcSize=1;arcSize=14;strokeWidth=2;fillColor=#004243;" parent="1" vertex="1">
          <mxGeometry x="1190" y="539" width="187" height="68" as="geometry" />
        </mxCell>
        <mxCell id="udABmW88HRmxGUMknRCP-9" value="&lt;font color=&quot;#ffffff&quot; style=&quot;font-size: 22px;&quot;&gt;Home&lt;/font&gt;" style="rounded=1;whiteSpace=wrap;html=1;absoluteArcSize=1;arcSize=14;strokeWidth=2;fillColor=#004243;" parent="1" vertex="1">
          <mxGeometry x="741" y="765" width="119" height="51" as="geometry" />
        </mxCell>
        <mxCell id="L3BWW2fsp2-KT5__wSaa-7" style="edgeStyle=orthogonalEdgeStyle;rounded=0;orthogonalLoop=1;jettySize=auto;html=1;exitX=0.5;exitY=1;exitDx=0;exitDy=0;entryX=0.5;entryY=0;entryDx=0;entryDy=0;" parent="1" source="93SCa4UGkXdUcIN7ek_4-1" target="udABmW88HRmxGUMknRCP-2" edge="1">
          <mxGeometry relative="1" as="geometry" />
        </mxCell>
        <mxCell id="93SCa4UGkXdUcIN7ek_4-1" value="&lt;font color=&quot;#ffffff&quot; style=&quot;font-size: 22px;&quot;&gt;Search Operator Username&lt;/font&gt;" style="shape=parallelogram;html=1;strokeWidth=2;perimeter=parallelogramPerimeter;whiteSpace=wrap;rounded=1;arcSize=12;size=0.23;fillColor=#3139A8;" parent="1" vertex="1">
          <mxGeometry x="467.5" y="373" width="238" height="77" as="geometry" />
        </mxCell>
        <mxCell id="L3BWW2fsp2-KT5__wSaa-6" style="edgeStyle=orthogonalEdgeStyle;rounded=0;orthogonalLoop=1;jettySize=auto;html=1;exitX=0.5;exitY=1;exitDx=0;exitDy=0;entryX=0.5;entryY=0;entryDx=0;entryDy=0;" parent="1" source="L3BWW2fsp2-KT5__wSaa-1" target="udABmW88HRmxGUMknRCP-3" edge="1">
          <mxGeometry relative="1" as="geometry" />
        </mxCell>
        <mxCell id="L3BWW2fsp2-KT5__wSaa-1" value="&lt;font color=&quot;#ffffff&quot; style=&quot;font-size: 22px;&quot;&gt;Search Operator Username&lt;/font&gt;" style="shape=parallelogram;html=1;strokeWidth=2;perimeter=parallelogramPerimeter;whiteSpace=wrap;rounded=1;arcSize=12;size=0.23;fillColor=#3139A8;" parent="1" vertex="1">
          <mxGeometry x="824.5" y="373" width="238" height="77" as="geometry" />
        </mxCell>
        <mxCell id="L3BWW2fsp2-KT5__wSaa-4" style="edgeStyle=orthogonalEdgeStyle;rounded=0;orthogonalLoop=1;jettySize=auto;html=1;exitX=0.5;exitY=1;exitDx=0;exitDy=0;entryX=0.5;entryY=0;entryDx=0;entryDy=0;" parent="1" source="L3BWW2fsp2-KT5__wSaa-2" target="udABmW88HRmxGUMknRCP-4" edge="1">
          <mxGeometry relative="1" as="geometry" />
        </mxCell>
        <mxCell id="L3BWW2fsp2-KT5__wSaa-2" value="&lt;font color=&quot;#ffffff&quot; style=&quot;font-size: 22px;&quot;&gt;Search Operator Username&lt;/font&gt;" style="shape=parallelogram;html=1;strokeWidth=2;perimeter=parallelogramPerimeter;whiteSpace=wrap;rounded=1;arcSize=12;size=0.23;fillColor=#3139A8;" parent="1" vertex="1">
          <mxGeometry x="1164.5" y="373" width="238" height="77" as="geometry" />
        </mxCell>
      </root>
    </mxGraphModel>
  </diagram>
  <diagram id="5R6LWMvqorASGV3jLExy" name="Page-3">
    <mxGraphModel dx="1050" dy="557" grid="1" gridSize="17" guides="1" tooltips="1" connect="1" arrows="1" fold="1" page="1" pageScale="1" pageWidth="1600" pageHeight="900" math="0" shadow="0">
      <root>
        <mxCell id="0" />
        <mxCell id="1" parent="0" />
        <mxCell id="rvOPYEaI5cp9BORtT11u-2" style="edgeStyle=orthogonalEdgeStyle;rounded=0;orthogonalLoop=1;jettySize=auto;html=1;exitX=0.5;exitY=1;exitDx=0;exitDy=0;entryX=0.5;entryY=0;entryDx=0;entryDy=0;" parent="1" source="nV3cPAgKrfpfY1ISe7Vg-1" target="IQBElgWiua3Jqlp_JpAz-1" edge="1">
          <mxGeometry relative="1" as="geometry" />
        </mxCell>
        <mxCell id="nV3cPAgKrfpfY1ISe7Vg-1" value="&lt;font color=&quot;#ffffff&quot; style=&quot;font-size: 22px;&quot;&gt;Register FIR&lt;/font&gt;" style="rounded=1;whiteSpace=wrap;html=1;absoluteArcSize=1;arcSize=14;strokeWidth=2;fillColor=#004243;" parent="1" vertex="1">
          <mxGeometry x="146" y="204" width="170" height="68" as="geometry" />
        </mxCell>
        <mxCell id="B2hhxZzjwUJ1lNd0Vrx6-4" style="edgeStyle=orthogonalEdgeStyle;rounded=0;orthogonalLoop=1;jettySize=auto;html=1;exitX=0.5;exitY=1;exitDx=0;exitDy=0;entryX=0.5;entryY=0;entryDx=0;entryDy=0;" parent="1" source="nV3cPAgKrfpfY1ISe7Vg-2" target="B2hhxZzjwUJ1lNd0Vrx6-1" edge="1">
          <mxGeometry relative="1" as="geometry" />
        </mxCell>
        <mxCell id="nV3cPAgKrfpfY1ISe7Vg-2" value="&lt;font color=&quot;#ffffff&quot; style=&quot;font-size: 22px;&quot;&gt;Update FIR&lt;/font&gt;" style="rounded=1;whiteSpace=wrap;html=1;absoluteArcSize=1;arcSize=14;strokeWidth=2;fillColor=#004243;" parent="1" vertex="1">
          <mxGeometry x="542.25" y="204" width="170" height="68" as="geometry" />
        </mxCell>
        <mxCell id="B2hhxZzjwUJ1lNd0Vrx6-7" style="edgeStyle=orthogonalEdgeStyle;rounded=0;orthogonalLoop=1;jettySize=auto;html=1;exitX=0.5;exitY=1;exitDx=0;exitDy=0;entryX=0.5;entryY=0;entryDx=0;entryDy=0;" parent="1" source="nV3cPAgKrfpfY1ISe7Vg-3" target="B2hhxZzjwUJ1lNd0Vrx6-2" edge="1">
          <mxGeometry relative="1" as="geometry" />
        </mxCell>
        <mxCell id="nV3cPAgKrfpfY1ISe7Vg-3" value="&lt;font color=&quot;#ffffff&quot; style=&quot;font-size: 22px;&quot;&gt;Delete FIR&lt;/font&gt;" style="rounded=1;whiteSpace=wrap;html=1;absoluteArcSize=1;arcSize=14;strokeWidth=2;fillColor=#004243;" parent="1" vertex="1">
          <mxGeometry x="929" y="204" width="170" height="68" as="geometry" />
        </mxCell>
        <mxCell id="fIWvg1_EkYDvDk_N1ZMJ-2" style="edgeStyle=orthogonalEdgeStyle;rounded=0;orthogonalLoop=1;jettySize=auto;html=1;exitX=0.5;exitY=1;exitDx=0;exitDy=0;entryX=0;entryY=0.5;entryDx=0;entryDy=0;" parent="1" source="IQBElgWiua3Jqlp_JpAz-1" target="eeu_lG2mJzvIxLZsGuoW-1" edge="1">
          <mxGeometry relative="1" as="geometry" />
        </mxCell>
        <mxCell id="IQBElgWiua3Jqlp_JpAz-1" value="&lt;font color=&quot;#ffffff&quot; style=&quot;font-size: 22px;&quot;&gt;Add FIR Info&lt;/font&gt;" style="shape=parallelogram;html=1;strokeWidth=2;perimeter=parallelogramPerimeter;whiteSpace=wrap;rounded=1;arcSize=12;size=0.23;fillColor=#3139A8;" parent="1" vertex="1">
          <mxGeometry x="137.5" y="476" width="187" height="68" as="geometry" />
        </mxCell>
        <mxCell id="fIWvg1_EkYDvDk_N1ZMJ-3" style="edgeStyle=orthogonalEdgeStyle;rounded=0;orthogonalLoop=1;jettySize=auto;html=1;exitX=0.5;exitY=1;exitDx=0;exitDy=0;entryX=0.25;entryY=0;entryDx=0;entryDy=0;" parent="1" source="IQBElgWiua3Jqlp_JpAz-2" target="eeu_lG2mJzvIxLZsGuoW-1" edge="1">
          <mxGeometry relative="1" as="geometry" />
        </mxCell>
        <mxCell id="IQBElgWiua3Jqlp_JpAz-2" value="&lt;font color=&quot;#ffffff&quot; style=&quot;font-size: 22px;&quot;&gt;Update FIR Info&lt;/font&gt;" style="shape=parallelogram;html=1;strokeWidth=2;perimeter=parallelogramPerimeter;whiteSpace=wrap;rounded=1;arcSize=12;size=0.23;fillColor=#3139A8;" parent="1" vertex="1">
          <mxGeometry x="521" y="560" width="212.5" height="68" as="geometry" />
        </mxCell>
        <mxCell id="fIWvg1_EkYDvDk_N1ZMJ-4" style="edgeStyle=orthogonalEdgeStyle;rounded=0;orthogonalLoop=1;jettySize=auto;html=1;exitX=0.5;exitY=1;exitDx=0;exitDy=0;entryX=0.75;entryY=0;entryDx=0;entryDy=0;" parent="1" source="FmmkkyWrWpxD9AEH-xiV-1" target="eeu_lG2mJzvIxLZsGuoW-1" edge="1">
          <mxGeometry relative="1" as="geometry" />
        </mxCell>
        <mxCell id="FmmkkyWrWpxD9AEH-xiV-1" value="&lt;font color=&quot;#ffffff&quot; style=&quot;font-size: 22px;&quot;&gt;Delete FIR Info&lt;/font&gt;" style="rounded=1;whiteSpace=wrap;html=1;absoluteArcSize=1;arcSize=14;strokeWidth=2;fillColor=#004243;" parent="1" vertex="1">
          <mxGeometry x="920.5" y="560" width="187" height="68" as="geometry" />
        </mxCell>
        <mxCell id="eeu_lG2mJzvIxLZsGuoW-1" value="&lt;font color=&quot;#ffffff&quot; style=&quot;font-size: 22px;&quot;&gt;Home&lt;/font&gt;" style="rounded=1;whiteSpace=wrap;html=1;absoluteArcSize=1;arcSize=14;strokeWidth=2;fillColor=#004243;" parent="1" vertex="1">
          <mxGeometry x="765" y="731" width="119" height="51" as="geometry" />
        </mxCell>
        <mxCell id="B2hhxZzjwUJ1lNd0Vrx6-8" style="edgeStyle=orthogonalEdgeStyle;rounded=0;orthogonalLoop=1;jettySize=auto;html=1;entryX=0.5;entryY=0;entryDx=0;entryDy=0;" parent="1" source="fIWvg1_EkYDvDk_N1ZMJ-1" target="B2hhxZzjwUJ1lNd0Vrx6-3" edge="1">
          <mxGeometry relative="1" as="geometry" />
        </mxCell>
        <mxCell id="fIWvg1_EkYDvDk_N1ZMJ-1" value="&lt;font color=&quot;#ffffff&quot;&gt;&lt;span style=&quot;font-size: 22px;&quot;&gt;Retrieve FIR&lt;/span&gt;&lt;/font&gt;" style="rounded=1;whiteSpace=wrap;html=1;absoluteArcSize=1;arcSize=14;strokeWidth=2;fillColor=#004243;" parent="1" vertex="1">
          <mxGeometry x="1309" y="204" width="170" height="68" as="geometry" />
        </mxCell>
        <mxCell id="fIWvg1_EkYDvDk_N1ZMJ-7" style="edgeStyle=orthogonalEdgeStyle;rounded=0;orthogonalLoop=1;jettySize=auto;html=1;exitX=0.5;exitY=1;exitDx=0;exitDy=0;entryX=1;entryY=0.5;entryDx=0;entryDy=0;" parent="1" source="fIWvg1_EkYDvDk_N1ZMJ-5" target="eeu_lG2mJzvIxLZsGuoW-1" edge="1">
          <mxGeometry relative="1" as="geometry" />
        </mxCell>
        <mxCell id="fIWvg1_EkYDvDk_N1ZMJ-5" value="&lt;font color=&quot;#ffffff&quot; style=&quot;font-size: 22px;&quot;&gt;Show FIR Info&lt;/font&gt;" style="rounded=1;whiteSpace=wrap;html=1;absoluteArcSize=1;arcSize=14;strokeWidth=2;fillColor=#004243;" parent="1" vertex="1">
          <mxGeometry x="1300.5" y="562" width="187" height="68" as="geometry" />
        </mxCell>
        <mxCell id="B2hhxZzjwUJ1lNd0Vrx6-5" style="edgeStyle=orthogonalEdgeStyle;rounded=0;orthogonalLoop=1;jettySize=auto;html=1;exitX=0.5;exitY=1;exitDx=0;exitDy=0;entryX=0.5;entryY=0;entryDx=0;entryDy=0;" parent="1" source="B2hhxZzjwUJ1lNd0Vrx6-1" target="IQBElgWiua3Jqlp_JpAz-2" edge="1">
          <mxGeometry relative="1" as="geometry" />
        </mxCell>
        <mxCell id="B2hhxZzjwUJ1lNd0Vrx6-1" value="&lt;font color=&quot;#ffffff&quot; style=&quot;font-size: 22px;&quot;&gt;Search FIR No.&lt;/font&gt;" style="shape=parallelogram;html=1;strokeWidth=2;perimeter=parallelogramPerimeter;whiteSpace=wrap;rounded=1;arcSize=12;size=0.23;fillColor=#3139A8;" parent="1" vertex="1">
          <mxGeometry x="521" y="382" width="212.5" height="68" as="geometry" />
        </mxCell>
        <mxCell id="B2hhxZzjwUJ1lNd0Vrx6-6" style="edgeStyle=orthogonalEdgeStyle;rounded=0;orthogonalLoop=1;jettySize=auto;html=1;exitX=0.5;exitY=1;exitDx=0;exitDy=0;entryX=0.5;entryY=0;entryDx=0;entryDy=0;" parent="1" source="B2hhxZzjwUJ1lNd0Vrx6-2" target="FmmkkyWrWpxD9AEH-xiV-1" edge="1">
          <mxGeometry relative="1" as="geometry" />
        </mxCell>
        <mxCell id="B2hhxZzjwUJ1lNd0Vrx6-2" value="&lt;font color=&quot;#ffffff&quot; style=&quot;font-size: 22px;&quot;&gt;Search FIR No.&lt;/font&gt;" style="shape=parallelogram;html=1;strokeWidth=2;perimeter=parallelogramPerimeter;whiteSpace=wrap;rounded=1;arcSize=12;size=0.23;fillColor=#3139A8;" parent="1" vertex="1">
          <mxGeometry x="907.75" y="382" width="212.5" height="68" as="geometry" />
        </mxCell>
        <mxCell id="B2hhxZzjwUJ1lNd0Vrx6-9" style="edgeStyle=orthogonalEdgeStyle;rounded=0;orthogonalLoop=1;jettySize=auto;html=1;exitX=0.5;exitY=1;exitDx=0;exitDy=0;entryX=0.5;entryY=0;entryDx=0;entryDy=0;" parent="1" source="B2hhxZzjwUJ1lNd0Vrx6-3" target="fIWvg1_EkYDvDk_N1ZMJ-5" edge="1">
          <mxGeometry relative="1" as="geometry" />
        </mxCell>
        <mxCell id="B2hhxZzjwUJ1lNd0Vrx6-3" value="&lt;font color=&quot;#ffffff&quot; style=&quot;font-size: 22px;&quot;&gt;Search FIR No.&lt;/font&gt;" style="shape=parallelogram;html=1;strokeWidth=2;perimeter=parallelogramPerimeter;whiteSpace=wrap;rounded=1;arcSize=12;size=0.23;fillColor=#3139A8;" parent="1" vertex="1">
          <mxGeometry x="1287.75" y="382" width="212.5" height="68" as="geometry" />
        </mxCell>
      </root>
    </mxGraphModel>
  </diagram>
  <diagram id="N0z4JlxaGdGze4N1WXCJ" name="Page-4">
    <mxGraphModel dx="1050" dy="557" grid="1" gridSize="17" guides="1" tooltips="1" connect="1" arrows="1" fold="1" page="1" pageScale="1" pageWidth="1600" pageHeight="900" math="0" shadow="0">
      <root>
        <mxCell id="0" />
        <mxCell id="1" parent="0" />
        <mxCell id="BdGq7ZecS8RQKo-jttEt-6" style="edgeStyle=orthogonalEdgeStyle;rounded=0;orthogonalLoop=1;jettySize=auto;html=1;exitX=0.5;exitY=1;exitDx=0;exitDy=0;" parent="1" source="JiF8CLB0Rz0b4foqe97J-1" target="BdGq7ZecS8RQKo-jttEt-2" edge="1">
          <mxGeometry relative="1" as="geometry" />
        </mxCell>
        <mxCell id="JiF8CLB0Rz0b4foqe97J-1" value="&lt;font color=&quot;#ffffff&quot;&gt;&lt;span style=&quot;font-size: 22px;&quot;&gt;Delete Criminal Record&lt;/span&gt;&lt;/font&gt;" style="rounded=1;whiteSpace=wrap;html=1;absoluteArcSize=1;arcSize=14;strokeWidth=2;fillColor=#004243;" parent="1" vertex="1">
          <mxGeometry x="901" y="204" width="170" height="68" as="geometry" />
        </mxCell>
        <mxCell id="BdGq7ZecS8RQKo-jttEt-4" style="edgeStyle=orthogonalEdgeStyle;rounded=0;orthogonalLoop=1;jettySize=auto;html=1;exitX=0.5;exitY=1;exitDx=0;exitDy=0;entryX=0.5;entryY=0;entryDx=0;entryDy=0;" parent="1" source="JiF8CLB0Rz0b4foqe97J-2" target="BdGq7ZecS8RQKo-jttEt-1" edge="1">
          <mxGeometry relative="1" as="geometry" />
        </mxCell>
        <mxCell id="JiF8CLB0Rz0b4foqe97J-2" value="&lt;font color=&quot;#ffffff&quot;&gt;&lt;span style=&quot;font-size: 22px;&quot;&gt;Update Criminal Record&lt;/span&gt;&lt;/font&gt;" style="rounded=1;whiteSpace=wrap;html=1;absoluteArcSize=1;arcSize=14;strokeWidth=2;fillColor=#004243;" parent="1" vertex="1">
          <mxGeometry x="493" y="204" width="170" height="68" as="geometry" />
        </mxCell>
        <mxCell id="mWbXKhc_U3mdWXlxvewp-1" style="edgeStyle=orthogonalEdgeStyle;rounded=0;orthogonalLoop=1;jettySize=auto;html=1;exitX=0.5;exitY=1;exitDx=0;exitDy=0;" parent="1" source="JiF8CLB0Rz0b4foqe97J-3" target="XayqESh6QDzfUjmNUdIm-1" edge="1">
          <mxGeometry relative="1" as="geometry" />
        </mxCell>
        <mxCell id="JiF8CLB0Rz0b4foqe97J-3" value="&lt;font color=&quot;#ffffff&quot;&gt;&lt;span style=&quot;font-size: 22px;&quot;&gt;Add Criminal&lt;/span&gt;&lt;/font&gt;" style="rounded=1;whiteSpace=wrap;html=1;absoluteArcSize=1;arcSize=14;strokeWidth=2;fillColor=#004243;" parent="1" vertex="1">
          <mxGeometry x="102" y="204" width="170" height="68" as="geometry" />
        </mxCell>
        <mxCell id="BdGq7ZecS8RQKo-jttEt-8" style="edgeStyle=orthogonalEdgeStyle;rounded=0;orthogonalLoop=1;jettySize=auto;html=1;exitX=0.5;exitY=1;exitDx=0;exitDy=0;" parent="1" source="JiF8CLB0Rz0b4foqe97J-5" target="BdGq7ZecS8RQKo-jttEt-3" edge="1">
          <mxGeometry relative="1" as="geometry" />
        </mxCell>
        <mxCell id="JiF8CLB0Rz0b4foqe97J-5" value="&lt;font color=&quot;#ffffff&quot;&gt;&lt;span style=&quot;font-size: 22px;&quot;&gt;Retrieve Criminal Record&lt;/span&gt;&lt;/font&gt;" style="rounded=1;whiteSpace=wrap;html=1;absoluteArcSize=1;arcSize=14;strokeWidth=2;fillColor=#004243;" parent="1" vertex="1">
          <mxGeometry x="1258" y="204" width="187" height="68" as="geometry" />
        </mxCell>
        <mxCell id="mWbXKhc_U3mdWXlxvewp-8" style="edgeStyle=orthogonalEdgeStyle;rounded=0;orthogonalLoop=1;jettySize=auto;html=1;exitX=0.5;exitY=1;exitDx=0;exitDy=0;entryX=0;entryY=0.5;entryDx=0;entryDy=0;" parent="1" source="XayqESh6QDzfUjmNUdIm-1" target="averz0wsive6wn6j8361-1" edge="1">
          <mxGeometry relative="1" as="geometry" />
        </mxCell>
        <mxCell id="XayqESh6QDzfUjmNUdIm-1" value="&lt;font color=&quot;#ffffff&quot; style=&quot;font-size: 22px;&quot;&gt;Add Criminal Info&lt;/font&gt;" style="shape=parallelogram;html=1;strokeWidth=2;perimeter=parallelogramPerimeter;whiteSpace=wrap;rounded=1;arcSize=12;size=0.23;fillColor=#3139A8;" parent="1" vertex="1">
          <mxGeometry x="68" y="476" width="238" height="68" as="geometry" />
        </mxCell>
        <mxCell id="mWbXKhc_U3mdWXlxvewp-6" style="edgeStyle=orthogonalEdgeStyle;rounded=0;orthogonalLoop=1;jettySize=auto;html=1;exitX=0.5;exitY=1;exitDx=0;exitDy=0;entryX=0.25;entryY=0;entryDx=0;entryDy=0;" parent="1" source="XayqESh6QDzfUjmNUdIm-2" target="averz0wsive6wn6j8361-1" edge="1">
          <mxGeometry relative="1" as="geometry" />
        </mxCell>
        <mxCell id="XayqESh6QDzfUjmNUdIm-2" value="&lt;font color=&quot;#ffffff&quot; style=&quot;font-size: 22px;&quot;&gt;Update Criminal Info&lt;/font&gt;" style="shape=parallelogram;html=1;strokeWidth=2;perimeter=parallelogramPerimeter;whiteSpace=wrap;rounded=1;arcSize=12;size=0.23;fillColor=#3139A8;" parent="1" vertex="1">
          <mxGeometry x="433.5" y="523" width="289" height="68" as="geometry" />
        </mxCell>
        <mxCell id="mWbXKhc_U3mdWXlxvewp-5" style="edgeStyle=orthogonalEdgeStyle;rounded=0;orthogonalLoop=1;jettySize=auto;html=1;exitX=0.5;exitY=1;exitDx=0;exitDy=0;entryX=0.75;entryY=0;entryDx=0;entryDy=0;" parent="1" source="EKSfvPxDL0_L9kDM5jLp-1" target="averz0wsive6wn6j8361-1" edge="1">
          <mxGeometry relative="1" as="geometry" />
        </mxCell>
        <mxCell id="EKSfvPxDL0_L9kDM5jLp-1" value="&lt;font color=&quot;#ffffff&quot; style=&quot;font-size: 22px;&quot;&gt;Delete Criminal Info&lt;/font&gt;" style="rounded=1;whiteSpace=wrap;html=1;absoluteArcSize=1;arcSize=14;strokeWidth=2;fillColor=#004243;" parent="1" vertex="1">
          <mxGeometry x="892.5" y="523" width="187" height="68" as="geometry" />
        </mxCell>
        <mxCell id="mWbXKhc_U3mdWXlxvewp-7" style="edgeStyle=orthogonalEdgeStyle;rounded=0;orthogonalLoop=1;jettySize=auto;html=1;exitX=0.5;exitY=1;exitDx=0;exitDy=0;entryX=1;entryY=0.5;entryDx=0;entryDy=0;" parent="1" source="EKSfvPxDL0_L9kDM5jLp-2" target="averz0wsive6wn6j8361-1" edge="1">
          <mxGeometry relative="1" as="geometry" />
        </mxCell>
        <mxCell id="EKSfvPxDL0_L9kDM5jLp-2" value="&lt;font color=&quot;#ffffff&quot; style=&quot;font-size: 22px;&quot;&gt;Retrieve Criminal Info&lt;/font&gt;" style="rounded=1;whiteSpace=wrap;html=1;absoluteArcSize=1;arcSize=14;strokeWidth=2;fillColor=#004243;" parent="1" vertex="1">
          <mxGeometry x="1258" y="523" width="187" height="68" as="geometry" />
        </mxCell>
        <mxCell id="averz0wsive6wn6j8361-1" value="&lt;font color=&quot;#ffffff&quot; style=&quot;font-size: 22px;&quot;&gt;Home&lt;/font&gt;" style="rounded=1;whiteSpace=wrap;html=1;absoluteArcSize=1;arcSize=14;strokeWidth=2;fillColor=#004243;" parent="1" vertex="1">
          <mxGeometry x="741" y="731" width="119" height="51" as="geometry" />
        </mxCell>
        <mxCell id="BdGq7ZecS8RQKo-jttEt-5" style="edgeStyle=orthogonalEdgeStyle;rounded=0;orthogonalLoop=1;jettySize=auto;html=1;exitX=0.5;exitY=1;exitDx=0;exitDy=0;entryX=0.5;entryY=0;entryDx=0;entryDy=0;" parent="1" source="BdGq7ZecS8RQKo-jttEt-1" target="XayqESh6QDzfUjmNUdIm-2" edge="1">
          <mxGeometry relative="1" as="geometry" />
        </mxCell>
        <mxCell id="BdGq7ZecS8RQKo-jttEt-1" value="&lt;font color=&quot;#ffffff&quot; style=&quot;font-size: 22px;&quot;&gt;Search Criminal No.&lt;/font&gt;" style="shape=parallelogram;html=1;strokeWidth=2;perimeter=parallelogramPerimeter;whiteSpace=wrap;rounded=1;arcSize=12;size=0.23;fillColor=#3139A8;" parent="1" vertex="1">
          <mxGeometry x="431.38" y="357" width="293.25" height="68" as="geometry" />
        </mxCell>
        <mxCell id="BdGq7ZecS8RQKo-jttEt-7" style="edgeStyle=orthogonalEdgeStyle;rounded=0;orthogonalLoop=1;jettySize=auto;html=1;exitX=0.5;exitY=1;exitDx=0;exitDy=0;entryX=0.5;entryY=0;entryDx=0;entryDy=0;" parent="1" source="BdGq7ZecS8RQKo-jttEt-2" target="EKSfvPxDL0_L9kDM5jLp-1" edge="1">
          <mxGeometry relative="1" as="geometry" />
        </mxCell>
        <mxCell id="BdGq7ZecS8RQKo-jttEt-2" value="&lt;font color=&quot;#ffffff&quot; style=&quot;font-size: 22px;&quot;&gt;Search Criminal No.&lt;/font&gt;" style="shape=parallelogram;html=1;strokeWidth=2;perimeter=parallelogramPerimeter;whiteSpace=wrap;rounded=1;arcSize=12;size=0.23;fillColor=#3139A8;" parent="1" vertex="1">
          <mxGeometry x="839.37" y="357" width="293.25" height="68" as="geometry" />
        </mxCell>
        <mxCell id="BdGq7ZecS8RQKo-jttEt-9" style="edgeStyle=orthogonalEdgeStyle;rounded=0;orthogonalLoop=1;jettySize=auto;html=1;exitX=0.5;exitY=1;exitDx=0;exitDy=0;entryX=0.5;entryY=0;entryDx=0;entryDy=0;" parent="1" source="BdGq7ZecS8RQKo-jttEt-3" target="EKSfvPxDL0_L9kDM5jLp-2" edge="1">
          <mxGeometry relative="1" as="geometry" />
        </mxCell>
        <mxCell id="BdGq7ZecS8RQKo-jttEt-3" value="&lt;font color=&quot;#ffffff&quot; style=&quot;font-size: 22px;&quot;&gt;Search Criminal No.&lt;/font&gt;" style="shape=parallelogram;html=1;strokeWidth=2;perimeter=parallelogramPerimeter;whiteSpace=wrap;rounded=1;arcSize=12;size=0.23;fillColor=#3139A8;" parent="1" vertex="1">
          <mxGeometry x="1204.87" y="357" width="293.25" height="68" as="geometry" />
        </mxCell>
      </root>
    </mxGraphModel>
  </diagram>
  <diagram id="DSnFDG_DvoqPjwh3XLpM" name="Page-5">
    <mxGraphModel dx="1916" dy="1116" grid="1" gridSize="10" guides="1" tooltips="1" connect="1" arrows="1" fold="1" page="1" pageScale="1" pageWidth="1600" pageHeight="900" math="0" shadow="0">
      <root>
        <mxCell id="0" />
        <mxCell id="1" parent="0" />
        <mxCell id="fLl9B88e_-EJL41MQa2m-13" style="edgeStyle=orthogonalEdgeStyle;rounded=0;orthogonalLoop=1;jettySize=auto;html=1;exitX=0.5;exitY=1;exitDx=0;exitDy=0;exitPerimeter=0;" parent="1" source="wUJkfxkx99PMQBeBll15-1" target="2lPHWmovjvrxYHjBVjLP-1" edge="1">
          <mxGeometry relative="1" as="geometry" />
        </mxCell>
        <mxCell id="wUJkfxkx99PMQBeBll15-1" value="&lt;font color=&quot;#ffffff&quot; style=&quot;font-size: 22px;&quot;&gt;Start&lt;/font&gt;" style="strokeWidth=2;html=1;shape=mxgraph.flowchart.terminator;whiteSpace=wrap;fillColor=#06C892;strokeColor=none;" parent="1" vertex="1">
          <mxGeometry x="481" y="14" width="80" height="40" as="geometry" />
        </mxCell>
        <mxCell id="2lPHWmovjvrxYHjBVjLP-1" value="&lt;font color=&quot;#ffffff&quot; style=&quot;font-size: 22px;&quot;&gt;Login&lt;/font&gt;" style="rounded=0;whiteSpace=wrap;html=1;fillColor=#004243;strokeColor=none;" parent="1" vertex="1">
          <mxGeometry x="476" y="86" width="90" height="40" as="geometry" />
        </mxCell>
        <mxCell id="fLl9B88e_-EJL41MQa2m-25" style="edgeStyle=orthogonalEdgeStyle;rounded=0;orthogonalLoop=1;jettySize=auto;html=1;exitX=0.5;exitY=1;exitDx=0;exitDy=0;entryX=0.5;entryY=0;entryDx=0;entryDy=0;" parent="1" source="-Ylcg3xIGqdNq3wq_yyK-1" target="fLl9B88e_-EJL41MQa2m-2" edge="1">
          <mxGeometry relative="1" as="geometry" />
        </mxCell>
        <mxCell id="-Ylcg3xIGqdNq3wq_yyK-1" value="&lt;font color=&quot;#ffffff&quot; style=&quot;font-size: 22px;&quot;&gt;Home&lt;/font&gt;" style="rounded=0;whiteSpace=wrap;html=1;fillColor=#004243;strokeColor=none;" parent="1" vertex="1">
          <mxGeometry x="137.5" y="412" width="90" height="40" as="geometry" />
        </mxCell>
        <mxCell id="lFm65tYLyBk9y7WERFu2-2" style="edgeStyle=orthogonalEdgeStyle;rounded=0;orthogonalLoop=1;jettySize=auto;html=1;exitX=0;exitY=0.5;exitDx=0;exitDy=0;entryX=0.5;entryY=0;entryDx=0;entryDy=0;" parent="1" source="-Ylcg3xIGqdNq3wq_yyK-2" target="WggznL57PWoxuo_nho3b-2" edge="1">
          <mxGeometry relative="1" as="geometry">
            <mxPoint x="418.9999999999998" y="674" as="targetPoint" />
          </mxGeometry>
        </mxCell>
        <mxCell id="-Ylcg3xIGqdNq3wq_yyK-2" value="&lt;font color=&quot;#ffffff&quot; style=&quot;font-size: 22px;&quot;&gt;Home&lt;/font&gt;" style="rounded=0;whiteSpace=wrap;html=1;fillColor=#004243;strokeColor=none;" parent="1" vertex="1">
          <mxGeometry x="799" y="412" width="90" height="40" as="geometry" />
        </mxCell>
        <mxCell id="fLl9B88e_-EJL41MQa2m-24" style="edgeStyle=orthogonalEdgeStyle;rounded=0;orthogonalLoop=1;jettySize=auto;html=1;exitX=0.5;exitY=1;exitDx=0;exitDy=0;exitPerimeter=0;entryX=0.5;entryY=0;entryDx=0;entryDy=0;" parent="1" source="-Ylcg3xIGqdNq3wq_yyK-3" target="-Ylcg3xIGqdNq3wq_yyK-1" edge="1">
          <mxGeometry relative="1" as="geometry" />
        </mxCell>
        <mxCell id="4u7qd8LQ4pBUE-noIsYv-1" style="edgeStyle=orthogonalEdgeStyle;rounded=0;orthogonalLoop=1;jettySize=auto;html=1;exitX=0;exitY=0.5;exitDx=0;exitDy=0;exitPerimeter=0;entryX=0;entryY=0.5;entryDx=0;entryDy=0;" parent="1" source="-Ylcg3xIGqdNq3wq_yyK-3" target="2lPHWmovjvrxYHjBVjLP-1" edge="1">
          <mxGeometry relative="1" as="geometry">
            <Array as="points">
              <mxPoint x="40" y="330" />
              <mxPoint x="40" y="106" />
            </Array>
          </mxGeometry>
        </mxCell>
        <mxCell id="-Ylcg3xIGqdNq3wq_yyK-3" value="&lt;font color=&quot;#ffffff&quot; style=&quot;font-size: 22px;&quot;&gt;Correct User?&lt;/font&gt;" style="strokeWidth=2;html=1;shape=mxgraph.flowchart.decision;whiteSpace=wrap;fillColor=#5383FF;strokeColor=none;" parent="1" vertex="1">
          <mxGeometry x="97.5" y="292" width="170" height="76" as="geometry" />
        </mxCell>
        <mxCell id="fLl9B88e_-EJL41MQa2m-30" style="edgeStyle=orthogonalEdgeStyle;rounded=0;orthogonalLoop=1;jettySize=auto;html=1;exitX=0.5;exitY=1;exitDx=0;exitDy=0;exitPerimeter=0;entryX=0.5;entryY=0;entryDx=0;entryDy=0;" parent="1" source="-Ylcg3xIGqdNq3wq_yyK-4" target="-Ylcg3xIGqdNq3wq_yyK-2" edge="1">
          <mxGeometry relative="1" as="geometry" />
        </mxCell>
        <mxCell id="4u7qd8LQ4pBUE-noIsYv-4" style="edgeStyle=orthogonalEdgeStyle;rounded=0;orthogonalLoop=1;jettySize=auto;html=1;exitX=1;exitY=0.5;exitDx=0;exitDy=0;exitPerimeter=0;entryX=1;entryY=0.5;entryDx=0;entryDy=0;" parent="1" source="-Ylcg3xIGqdNq3wq_yyK-4" target="2lPHWmovjvrxYHjBVjLP-1" edge="1">
          <mxGeometry relative="1" as="geometry">
            <Array as="points">
              <mxPoint x="990" y="330" />
              <mxPoint x="990" y="106" />
            </Array>
          </mxGeometry>
        </mxCell>
        <mxCell id="-Ylcg3xIGqdNq3wq_yyK-4" value="&lt;font color=&quot;#ffffff&quot; style=&quot;font-size: 22px;&quot;&gt;Correct User?&lt;/font&gt;" style="strokeWidth=2;html=1;shape=mxgraph.flowchart.decision;whiteSpace=wrap;fillColor=#5383FF;strokeColor=none;" parent="1" vertex="1">
          <mxGeometry x="759" y="292" width="170" height="76" as="geometry" />
        </mxCell>
        <mxCell id="-Ylcg3xIGqdNq3wq_yyK-8" value="&lt;font color=&quot;#ffffff&quot; style=&quot;font-size: 22px;&quot;&gt;Input Username and Password&lt;/font&gt;" style="shape=parallelogram;perimeter=parallelogramPerimeter;whiteSpace=wrap;html=1;fixedSize=1;fillColor=#3139A8;strokeColor=none;" parent="1" vertex="1">
          <mxGeometry x="82.5" y="193" width="200" height="60" as="geometry" />
        </mxCell>
        <mxCell id="-Ylcg3xIGqdNq3wq_yyK-9" value="&lt;font color=&quot;#ffffff&quot; style=&quot;font-size: 22px;&quot;&gt;Input Username and Password&lt;/font&gt;" style="shape=parallelogram;perimeter=parallelogramPerimeter;whiteSpace=wrap;html=1;fixedSize=1;fillColor=#3139A8;strokeColor=none;" parent="1" vertex="1">
          <mxGeometry x="744" y="193" width="200" height="60" as="geometry" />
        </mxCell>
        <mxCell id="-Ylcg3xIGqdNq3wq_yyK-11" value="&lt;font color=&quot;#ffffff&quot; style=&quot;font-size: 22px;&quot;&gt;Add&lt;/font&gt;" style="rounded=0;whiteSpace=wrap;html=1;fillColor=#004243;strokeColor=none;" parent="1" vertex="1">
          <mxGeometry x="1193" y="560" width="90" height="40" as="geometry" />
        </mxCell>
        <mxCell id="-Ylcg3xIGqdNq3wq_yyK-12" value="&lt;font color=&quot;#ffffff&quot; style=&quot;font-size: 22px;&quot;&gt;Delete&lt;/font&gt;" style="rounded=0;whiteSpace=wrap;html=1;fillColor=#004243;strokeColor=none;" parent="1" vertex="1">
          <mxGeometry x="1193" y="640" width="90" height="40" as="geometry" />
        </mxCell>
        <mxCell id="-Ylcg3xIGqdNq3wq_yyK-13" value="&lt;font color=&quot;#ffffff&quot; style=&quot;font-size: 22px;&quot;&gt;Update&lt;/font&gt;" style="rounded=0;whiteSpace=wrap;html=1;fillColor=#004243;strokeColor=none;" parent="1" vertex="1">
          <mxGeometry x="1193" y="720" width="90" height="40" as="geometry" />
        </mxCell>
        <mxCell id="qlPV-WhdcoMIs1RFM0Vq-5" style="edgeStyle=orthogonalEdgeStyle;rounded=0;orthogonalLoop=1;jettySize=auto;html=1;exitX=0;exitY=0.5;exitDx=0;exitDy=0;entryX=0;entryY=0.5;entryDx=0;entryDy=0;" parent="1" source="fLl9B88e_-EJL41MQa2m-2" target="-Ylcg3xIGqdNq3wq_yyK-1" edge="1">
          <mxGeometry relative="1" as="geometry">
            <Array as="points">
              <mxPoint x="70" y="527" />
              <mxPoint x="70" y="432" />
            </Array>
          </mxGeometry>
        </mxCell>
        <mxCell id="fLl9B88e_-EJL41MQa2m-2" value="&lt;font color=&quot;#ffffff&quot; style=&quot;font-size: 22px;&quot;&gt;View Criminal&lt;/font&gt;" style="rounded=0;whiteSpace=wrap;html=1;fillColor=#004243;strokeColor=none;" parent="1" vertex="1">
          <mxGeometry x="110" y="502" width="145" height="50" as="geometry" />
        </mxCell>
        <mxCell id="fLl9B88e_-EJL41MQa2m-6" value="&lt;font color=&quot;#ffffff&quot; style=&quot;font-size: 22px;&quot;&gt;Criminal&lt;/font&gt;" style="rounded=0;whiteSpace=wrap;html=1;fillColor=#004243;strokeColor=none;" parent="1" vertex="1">
          <mxGeometry x="815.5" y="570" width="100" height="40" as="geometry" />
        </mxCell>
        <mxCell id="fLl9B88e_-EJL41MQa2m-7" value="&lt;font color=&quot;#ffffff&quot; style=&quot;font-size: 22px;&quot;&gt;Operator&lt;/font&gt;" style="rounded=0;whiteSpace=wrap;html=1;fillColor=#004243;strokeColor=none;" parent="1" vertex="1">
          <mxGeometry x="815.5" y="740" width="101" height="40" as="geometry" />
        </mxCell>
        <mxCell id="fLl9B88e_-EJL41MQa2m-11" value="" style="group" parent="1" vertex="1" connectable="0">
          <mxGeometry x="540" y="591" width="220" height="138" as="geometry" />
        </mxCell>
        <mxCell id="fLl9B88e_-EJL41MQa2m-3" value="" style="strokeWidth=2;html=1;shape=mxgraph.flowchart.decision;whiteSpace=wrap;fillColor=#5383FF;strokeColor=none;" parent="fLl9B88e_-EJL41MQa2m-11" vertex="1">
          <mxGeometry width="220" height="138" as="geometry" />
        </mxCell>
        <mxCell id="fLl9B88e_-EJL41MQa2m-10" value="&lt;font color=&quot;#ffffff&quot; style=&quot;font-size: 22px;&quot;&gt;What do you wanna manage?&lt;/font&gt;" style="text;html=1;strokeColor=none;fillColor=none;align=center;verticalAlign=middle;whiteSpace=wrap;rounded=0;" parent="fLl9B88e_-EJL41MQa2m-11" vertex="1">
          <mxGeometry x="47" y="34" width="133" height="78" as="geometry" />
        </mxCell>
        <mxCell id="fLl9B88e_-EJL41MQa2m-12" value="" style="group" parent="1" vertex="1" connectable="0">
          <mxGeometry x="416" y="166" width="210" height="114" as="geometry" />
        </mxCell>
        <mxCell id="mgbgrT5uJCptXZaAFoKL-1" value="" style="strokeWidth=2;html=1;shape=mxgraph.flowchart.decision;whiteSpace=wrap;fillColor=#5383FF;strokeColor=none;" parent="fLl9B88e_-EJL41MQa2m-12" vertex="1">
          <mxGeometry width="210" height="114" as="geometry" />
        </mxCell>
        <mxCell id="mgbgrT5uJCptXZaAFoKL-2" value="&lt;font color=&quot;#ffffff&quot; style=&quot;font-size: 22px;&quot;&gt;Administrator OR Operator?&lt;/font&gt;" style="text;html=1;strokeColor=none;fillColor=none;align=center;verticalAlign=middle;whiteSpace=wrap;rounded=0;" parent="fLl9B88e_-EJL41MQa2m-12" vertex="1">
          <mxGeometry x="20" y="22" width="170" height="70" as="geometry" />
        </mxCell>
        <mxCell id="fLl9B88e_-EJL41MQa2m-16" style="edgeStyle=orthogonalEdgeStyle;rounded=0;orthogonalLoop=1;jettySize=auto;html=1;exitX=0.5;exitY=1;exitDx=0;exitDy=0;entryX=0.5;entryY=0;entryDx=0;entryDy=0;entryPerimeter=0;" parent="1" source="2lPHWmovjvrxYHjBVjLP-1" target="mgbgrT5uJCptXZaAFoKL-1" edge="1">
          <mxGeometry relative="1" as="geometry" />
        </mxCell>
        <mxCell id="fLl9B88e_-EJL41MQa2m-18" style="edgeStyle=orthogonalEdgeStyle;rounded=0;orthogonalLoop=1;jettySize=auto;html=1;exitX=1;exitY=0.5;exitDx=0;exitDy=0;exitPerimeter=0;" parent="1" source="mgbgrT5uJCptXZaAFoKL-1" target="-Ylcg3xIGqdNq3wq_yyK-9" edge="1">
          <mxGeometry relative="1" as="geometry" />
        </mxCell>
        <mxCell id="fLl9B88e_-EJL41MQa2m-19" style="edgeStyle=orthogonalEdgeStyle;rounded=0;orthogonalLoop=1;jettySize=auto;html=1;exitX=0;exitY=0.5;exitDx=0;exitDy=0;exitPerimeter=0;entryX=1;entryY=0.5;entryDx=0;entryDy=0;" parent="1" source="mgbgrT5uJCptXZaAFoKL-1" target="-Ylcg3xIGqdNq3wq_yyK-8" edge="1">
          <mxGeometry relative="1" as="geometry" />
        </mxCell>
        <mxCell id="fLl9B88e_-EJL41MQa2m-22" style="edgeStyle=orthogonalEdgeStyle;rounded=0;orthogonalLoop=1;jettySize=auto;html=1;exitX=0.5;exitY=1;exitDx=0;exitDy=0;entryX=0.5;entryY=0;entryDx=0;entryDy=0;entryPerimeter=0;" parent="1" source="-Ylcg3xIGqdNq3wq_yyK-8" target="-Ylcg3xIGqdNq3wq_yyK-3" edge="1">
          <mxGeometry relative="1" as="geometry" />
        </mxCell>
        <mxCell id="fLl9B88e_-EJL41MQa2m-29" style="edgeStyle=orthogonalEdgeStyle;rounded=0;orthogonalLoop=1;jettySize=auto;html=1;exitX=0.5;exitY=1;exitDx=0;exitDy=0;entryX=0.5;entryY=0;entryDx=0;entryDy=0;entryPerimeter=0;" parent="1" source="-Ylcg3xIGqdNq3wq_yyK-9" target="-Ylcg3xIGqdNq3wq_yyK-4" edge="1">
          <mxGeometry relative="1" as="geometry" />
        </mxCell>
        <mxCell id="fLl9B88e_-EJL41MQa2m-32" style="edgeStyle=orthogonalEdgeStyle;rounded=0;orthogonalLoop=1;jettySize=auto;html=1;exitX=1;exitY=0.5;exitDx=0;exitDy=0;exitPerimeter=0;entryX=0;entryY=0.5;entryDx=0;entryDy=0;" parent="1" source="fLl9B88e_-EJL41MQa2m-3" target="fLl9B88e_-EJL41MQa2m-6" edge="1">
          <mxGeometry relative="1" as="geometry" />
        </mxCell>
        <mxCell id="fLl9B88e_-EJL41MQa2m-35" style="edgeStyle=orthogonalEdgeStyle;rounded=0;orthogonalLoop=1;jettySize=auto;html=1;exitX=1;exitY=0.5;exitDx=0;exitDy=0;entryX=0;entryY=0.5;entryDx=0;entryDy=0;entryPerimeter=0;" parent="1" source="fLl9B88e_-EJL41MQa2m-6" target="fLl9B88e_-EJL41MQa2m-4" edge="1">
          <mxGeometry relative="1" as="geometry" />
        </mxCell>
        <mxCell id="fLl9B88e_-EJL41MQa2m-40" value="" style="group" parent="1" vertex="1" connectable="0">
          <mxGeometry x="982" y="616" width="150" height="88.25" as="geometry" />
        </mxCell>
        <mxCell id="fLl9B88e_-EJL41MQa2m-4" value="" style="strokeWidth=2;html=1;shape=mxgraph.flowchart.decision;whiteSpace=wrap;fillColor=#5383FF;strokeColor=none;" parent="fLl9B88e_-EJL41MQa2m-40" vertex="1">
          <mxGeometry width="150" height="88.25" as="geometry" />
        </mxCell>
        <mxCell id="fLl9B88e_-EJL41MQa2m-39" value="&lt;font color=&quot;#ffffff&quot; style=&quot;font-size: 22px;&quot;&gt;What operation?&lt;/font&gt;" style="text;html=1;strokeColor=none;fillColor=none;align=center;verticalAlign=middle;whiteSpace=wrap;rounded=0;" parent="fLl9B88e_-EJL41MQa2m-40" vertex="1">
          <mxGeometry x="14.5" y="10.120000000000005" width="125" height="58" as="geometry" />
        </mxCell>
        <mxCell id="fLl9B88e_-EJL41MQa2m-41" style="edgeStyle=orthogonalEdgeStyle;rounded=0;orthogonalLoop=1;jettySize=auto;html=1;exitX=1;exitY=0.5;exitDx=0;exitDy=0;exitPerimeter=0;entryX=0;entryY=0.5;entryDx=0;entryDy=0;" parent="1" source="fLl9B88e_-EJL41MQa2m-4" target="-Ylcg3xIGqdNq3wq_yyK-13" edge="1">
          <mxGeometry relative="1" as="geometry">
            <Array as="points">
              <mxPoint x="1156" y="660" />
              <mxPoint x="1156" y="740" />
            </Array>
          </mxGeometry>
        </mxCell>
        <mxCell id="fLl9B88e_-EJL41MQa2m-44" value="" style="endArrow=classic;html=1;rounded=0;entryX=0;entryY=0.5;entryDx=0;entryDy=0;" parent="1" target="-Ylcg3xIGqdNq3wq_yyK-12" edge="1">
          <mxGeometry width="50" height="50" relative="1" as="geometry">
            <mxPoint x="1156" y="660" as="sourcePoint" />
            <mxPoint x="1146" y="678" as="targetPoint" />
          </mxGeometry>
        </mxCell>
        <mxCell id="_cQj_5Q2Vw3fH596yoyV-2" value="&lt;font style=&quot;font-size: 18px;&quot;&gt;Administrator&lt;/font&gt;" style="text;html=1;strokeColor=none;fillColor=none;align=center;verticalAlign=middle;whiteSpace=wrap;rounded=0;" parent="1" vertex="1">
          <mxGeometry x="626" y="193" width="117.5" height="30" as="geometry" />
        </mxCell>
        <mxCell id="_cQj_5Q2Vw3fH596yoyV-3" value="&lt;font style=&quot;font-size: 18px;&quot;&gt;Operator&lt;/font&gt;" style="text;html=1;strokeColor=none;fillColor=none;align=center;verticalAlign=middle;whiteSpace=wrap;rounded=0;" parent="1" vertex="1">
          <mxGeometry x="322" y="194" width="94" height="27" as="geometry" />
        </mxCell>
        <mxCell id="4u7qd8LQ4pBUE-noIsYv-2" value="&lt;font style=&quot;font-size: 18px;&quot;&gt;Yes&lt;/font&gt;" style="text;html=1;strokeColor=none;fillColor=none;align=center;verticalAlign=middle;whiteSpace=wrap;rounded=0;" parent="1" vertex="1">
          <mxGeometry x="176" y="370" width="60" height="30" as="geometry" />
        </mxCell>
        <mxCell id="4u7qd8LQ4pBUE-noIsYv-3" value="&lt;font style=&quot;font-size: 18px;&quot;&gt;No&lt;/font&gt;" style="text;html=1;strokeColor=none;fillColor=none;align=center;verticalAlign=middle;whiteSpace=wrap;rounded=0;" parent="1" vertex="1">
          <mxGeometry x="47.5" y="300" width="60" height="30" as="geometry" />
        </mxCell>
        <mxCell id="4u7qd8LQ4pBUE-noIsYv-5" value="&lt;font style=&quot;font-size: 18px;&quot;&gt;Yes&lt;/font&gt;" style="text;html=1;strokeColor=none;fillColor=none;align=center;verticalAlign=middle;whiteSpace=wrap;rounded=0;" parent="1" vertex="1">
          <mxGeometry x="836" y="373" width="60" height="30" as="geometry" />
        </mxCell>
        <mxCell id="4u7qd8LQ4pBUE-noIsYv-6" value="&lt;font style=&quot;font-size: 18px;&quot;&gt;No&lt;/font&gt;" style="text;html=1;strokeColor=none;fillColor=none;align=center;verticalAlign=middle;whiteSpace=wrap;rounded=0;" parent="1" vertex="1">
          <mxGeometry x="922" y="300" width="60" height="30" as="geometry" />
        </mxCell>
        <mxCell id="lFm65tYLyBk9y7WERFu2-1" style="edgeStyle=orthogonalEdgeStyle;rounded=0;orthogonalLoop=1;jettySize=auto;html=1;exitX=0.5;exitY=1;exitDx=0;exitDy=0;entryX=0.5;entryY=0;entryDx=0;entryDy=0;entryPerimeter=0;" parent="1" source="-Ylcg3xIGqdNq3wq_yyK-2" target="fLl9B88e_-EJL41MQa2m-3" edge="1">
          <mxGeometry relative="1" as="geometry">
            <Array as="points">
              <mxPoint x="844" y="500" />
              <mxPoint x="650" y="500" />
            </Array>
          </mxGeometry>
        </mxCell>
        <mxCell id="lFm65tYLyBk9y7WERFu2-4" value="" style="endArrow=none;html=1;rounded=0;entryX=1;entryY=0.5;entryDx=0;entryDy=0;" parent="1" target="-Ylcg3xIGqdNq3wq_yyK-1" edge="1">
          <mxGeometry width="50" height="50" relative="1" as="geometry">
            <mxPoint x="420" y="432" as="sourcePoint" />
            <mxPoint x="480" y="570" as="targetPoint" />
          </mxGeometry>
        </mxCell>
        <mxCell id="TZwiKcpPHySNaA_StOuU-1" value="&lt;font color=&quot;#ffffff&quot; style=&quot;font-size: 22px;&quot;&gt;End&lt;/font&gt;" style="strokeWidth=2;html=1;shape=mxgraph.flowchart.terminator;whiteSpace=wrap;fillColor=#06C892;strokeColor=none;" parent="1" vertex="1">
          <mxGeometry x="379" y="820" width="80" height="40" as="geometry" />
        </mxCell>
        <mxCell id="TZwiKcpPHySNaA_StOuU-2" style="edgeStyle=orthogonalEdgeStyle;rounded=0;orthogonalLoop=1;jettySize=auto;html=1;exitX=0.5;exitY=1;exitDx=0;exitDy=0;entryX=0.5;entryY=0;entryDx=0;entryDy=0;entryPerimeter=0;" parent="1" source="WggznL57PWoxuo_nho3b-2" target="TZwiKcpPHySNaA_StOuU-1" edge="1">
          <mxGeometry relative="1" as="geometry">
            <mxPoint x="418.9999999999998" y="749.9999999999998" as="sourcePoint" />
          </mxGeometry>
        </mxCell>
        <mxCell id="WggznL57PWoxuo_nho3b-2" value="&lt;font color=&quot;#ffffff&quot; style=&quot;font-size: 22px;&quot;&gt;Logout&lt;/font&gt;" style="rounded=0;whiteSpace=wrap;html=1;fillColor=#004243;strokeColor=none;" parent="1" vertex="1">
          <mxGeometry x="374" y="710" width="90" height="40" as="geometry" />
        </mxCell>
        <mxCell id="Jyk3o9KoxyM7kx3UKvi6-1" style="edgeStyle=orthogonalEdgeStyle;rounded=0;orthogonalLoop=1;jettySize=auto;html=1;entryX=0;entryY=0.5;entryDx=0;entryDy=0;" edge="1" parent="1" target="fLl9B88e_-EJL41MQa2m-7">
          <mxGeometry relative="1" as="geometry">
            <mxPoint x="788" y="660" as="sourcePoint" />
            <mxPoint x="813.5" y="760" as="targetPoint" />
            <Array as="points">
              <mxPoint x="788" y="760" />
            </Array>
          </mxGeometry>
        </mxCell>
        <mxCell id="Jyk3o9KoxyM7kx3UKvi6-3" value="" style="endArrow=none;html=1;rounded=0;exitX=1;exitY=0.5;exitDx=0;exitDy=0;" edge="1" parent="1">
          <mxGeometry width="50" height="50" relative="1" as="geometry">
            <mxPoint x="915.5" y="760" as="sourcePoint" />
            <mxPoint x="949" y="660" as="targetPoint" />
            <Array as="points">
              <mxPoint x="949" y="760" />
            </Array>
          </mxGeometry>
        </mxCell>
        <mxCell id="Jyk3o9KoxyM7kx3UKvi6-5" value="" style="endArrow=classic;html=1;rounded=0;entryX=0;entryY=0.5;entryDx=0;entryDy=0;" edge="1" parent="1" target="-Ylcg3xIGqdNq3wq_yyK-11">
          <mxGeometry width="50" height="50" relative="1" as="geometry">
            <mxPoint x="1156" y="660" as="sourcePoint" />
            <mxPoint x="1189" y="580" as="targetPoint" />
            <Array as="points">
              <mxPoint x="1156" y="580" />
            </Array>
          </mxGeometry>
        </mxCell>
      </root>
    </mxGraphModel>
  </diagram>
  <diagram name="Page-6" id="qsjfJ-6fpdWYluHOmWrE">
    <mxGraphModel dx="1916" dy="1116" grid="1" gridSize="10" guides="1" tooltips="1" connect="1" arrows="1" fold="1" page="1" pageScale="1" pageWidth="1600" pageHeight="900" math="0" shadow="0">
      <root>
        <mxCell id="Pb5zSjwzKYjtGwkG9DzL-0" />
        <mxCell id="Pb5zSjwzKYjtGwkG9DzL-1" parent="Pb5zSjwzKYjtGwkG9DzL-0" />
        <mxCell id="Pb5zSjwzKYjtGwkG9DzL-2" style="edgeStyle=orthogonalEdgeStyle;rounded=0;orthogonalLoop=1;jettySize=auto;html=1;exitX=0.5;exitY=1;exitDx=0;exitDy=0;exitPerimeter=0;" parent="Pb5zSjwzKYjtGwkG9DzL-1" source="Pb5zSjwzKYjtGwkG9DzL-3" target="Pb5zSjwzKYjtGwkG9DzL-4" edge="1">
          <mxGeometry relative="1" as="geometry" />
        </mxCell>
        <mxCell id="Pb5zSjwzKYjtGwkG9DzL-3" value="&lt;font color=&quot;#ffffff&quot; style=&quot;font-size: 22px;&quot;&gt;Start&lt;/font&gt;" style="strokeWidth=2;html=1;shape=mxgraph.flowchart.terminator;whiteSpace=wrap;fillColor=#06C892;strokeColor=none;" parent="Pb5zSjwzKYjtGwkG9DzL-1" vertex="1">
          <mxGeometry x="481" y="14" width="80" height="40" as="geometry" />
        </mxCell>
        <mxCell id="Pb5zSjwzKYjtGwkG9DzL-4" value="&lt;font color=&quot;#ffffff&quot; style=&quot;font-size: 22px;&quot;&gt;Login&lt;/font&gt;" style="rounded=0;whiteSpace=wrap;html=1;fillColor=#004243;strokeColor=none;" parent="Pb5zSjwzKYjtGwkG9DzL-1" vertex="1">
          <mxGeometry x="476" y="86" width="90" height="40" as="geometry" />
        </mxCell>
        <mxCell id="Pb5zSjwzKYjtGwkG9DzL-5" style="edgeStyle=orthogonalEdgeStyle;rounded=0;orthogonalLoop=1;jettySize=auto;html=1;exitX=0.5;exitY=1;exitDx=0;exitDy=0;entryX=0.5;entryY=0;entryDx=0;entryDy=0;" parent="Pb5zSjwzKYjtGwkG9DzL-1" source="Pb5zSjwzKYjtGwkG9DzL-6" target="Pb5zSjwzKYjtGwkG9DzL-20" edge="1">
          <mxGeometry relative="1" as="geometry" />
        </mxCell>
        <mxCell id="Pb5zSjwzKYjtGwkG9DzL-6" value="&lt;font color=&quot;#ffffff&quot; style=&quot;font-size: 22px;&quot;&gt;Home&lt;/font&gt;" style="rounded=0;whiteSpace=wrap;html=1;fillColor=#004243;strokeColor=none;" parent="Pb5zSjwzKYjtGwkG9DzL-1" vertex="1">
          <mxGeometry x="137.5" y="412" width="90" height="40" as="geometry" />
        </mxCell>
        <mxCell id="G94UNs52qs5pjw5ALkX2-2" style="edgeStyle=orthogonalEdgeStyle;rounded=0;orthogonalLoop=1;jettySize=auto;html=1;exitX=1;exitY=0.5;exitDx=0;exitDy=0;entryX=0;entryY=0.5;entryDx=0;entryDy=0;entryPerimeter=0;" parent="Pb5zSjwzKYjtGwkG9DzL-1" source="Pb5zSjwzKYjtGwkG9DzL-7" target="Pb5zSjwzKYjtGwkG9DzL-25" edge="1">
          <mxGeometry relative="1" as="geometry">
            <mxPoint x="940" y="160.39999999999998" as="targetPoint" />
          </mxGeometry>
        </mxCell>
        <mxCell id="Pb5zSjwzKYjtGwkG9DzL-7" value="&lt;font color=&quot;#ffffff&quot; style=&quot;font-size: 22px;&quot;&gt;Home&lt;/font&gt;" style="rounded=0;whiteSpace=wrap;html=1;fillColor=#004243;strokeColor=none;" parent="Pb5zSjwzKYjtGwkG9DzL-1" vertex="1">
          <mxGeometry x="770" y="140" width="90" height="40" as="geometry" />
        </mxCell>
        <mxCell id="Pb5zSjwzKYjtGwkG9DzL-8" style="edgeStyle=orthogonalEdgeStyle;rounded=0;orthogonalLoop=1;jettySize=auto;html=1;exitX=0.5;exitY=1;exitDx=0;exitDy=0;exitPerimeter=0;entryX=0.5;entryY=0;entryDx=0;entryDy=0;" parent="Pb5zSjwzKYjtGwkG9DzL-1" source="Pb5zSjwzKYjtGwkG9DzL-9" target="Pb5zSjwzKYjtGwkG9DzL-6" edge="1">
          <mxGeometry relative="1" as="geometry" />
        </mxCell>
        <mxCell id="oImTvYOyCMajW2KjbK-M-3" style="edgeStyle=orthogonalEdgeStyle;rounded=0;orthogonalLoop=1;jettySize=auto;html=1;exitX=0;exitY=0.5;exitDx=0;exitDy=0;exitPerimeter=0;entryX=0;entryY=0.5;entryDx=0;entryDy=0;" parent="Pb5zSjwzKYjtGwkG9DzL-1" source="Pb5zSjwzKYjtGwkG9DzL-9" target="Pb5zSjwzKYjtGwkG9DzL-4" edge="1">
          <mxGeometry relative="1" as="geometry">
            <Array as="points">
              <mxPoint x="40" y="330" />
              <mxPoint x="40" y="106" />
            </Array>
          </mxGeometry>
        </mxCell>
        <mxCell id="Pb5zSjwzKYjtGwkG9DzL-9" value="&lt;font color=&quot;#ffffff&quot; style=&quot;font-size: 22px;&quot;&gt;Correct User?&lt;/font&gt;" style="strokeWidth=2;html=1;shape=mxgraph.flowchart.decision;whiteSpace=wrap;fillColor=#5383FF;strokeColor=none;" parent="Pb5zSjwzKYjtGwkG9DzL-1" vertex="1">
          <mxGeometry x="97.5" y="292" width="170" height="76" as="geometry" />
        </mxCell>
        <mxCell id="G94UNs52qs5pjw5ALkX2-0" style="edgeStyle=orthogonalEdgeStyle;rounded=0;orthogonalLoop=1;jettySize=auto;html=1;exitX=1;exitY=0.5;exitDx=0;exitDy=0;exitPerimeter=0;entryX=1;entryY=0.5;entryDx=0;entryDy=0;" parent="Pb5zSjwzKYjtGwkG9DzL-1" source="Pb5zSjwzKYjtGwkG9DzL-11" target="Pb5zSjwzKYjtGwkG9DzL-4" edge="1">
          <mxGeometry relative="1" as="geometry">
            <Array as="points">
              <mxPoint x="670" y="477" />
              <mxPoint x="670" y="106" />
            </Array>
          </mxGeometry>
        </mxCell>
        <mxCell id="G94UNs52qs5pjw5ALkX2-1" style="edgeStyle=orthogonalEdgeStyle;rounded=0;orthogonalLoop=1;jettySize=auto;html=1;exitX=0.5;exitY=1;exitDx=0;exitDy=0;exitPerimeter=0;entryX=0;entryY=0.5;entryDx=0;entryDy=0;" parent="Pb5zSjwzKYjtGwkG9DzL-1" source="Pb5zSjwzKYjtGwkG9DzL-11" target="Pb5zSjwzKYjtGwkG9DzL-7" edge="1">
          <mxGeometry relative="1" as="geometry">
            <Array as="points">
              <mxPoint x="521" y="550" />
              <mxPoint x="720" y="550" />
              <mxPoint x="720" y="160" />
            </Array>
          </mxGeometry>
        </mxCell>
        <mxCell id="Pb5zSjwzKYjtGwkG9DzL-11" value="&lt;font color=&quot;#ffffff&quot; style=&quot;font-size: 22px;&quot;&gt;Correct User?&lt;/font&gt;" style="strokeWidth=2;html=1;shape=mxgraph.flowchart.decision;whiteSpace=wrap;fillColor=#5383FF;strokeColor=none;" parent="Pb5zSjwzKYjtGwkG9DzL-1" vertex="1">
          <mxGeometry x="436" y="439" width="170" height="76" as="geometry" />
        </mxCell>
        <mxCell id="Pb5zSjwzKYjtGwkG9DzL-12" value="&lt;font color=&quot;#ffffff&quot; style=&quot;font-size: 22px;&quot;&gt;Input Username and Password&lt;/font&gt;" style="shape=parallelogram;perimeter=parallelogramPerimeter;whiteSpace=wrap;html=1;fixedSize=1;fillColor=#3139A8;strokeColor=none;" parent="Pb5zSjwzKYjtGwkG9DzL-1" vertex="1">
          <mxGeometry x="82.5" y="193" width="200" height="60" as="geometry" />
        </mxCell>
        <mxCell id="Pb5zSjwzKYjtGwkG9DzL-13" value="&lt;font color=&quot;#ffffff&quot; style=&quot;font-size: 22px;&quot;&gt;Input Username and Password&lt;/font&gt;" style="shape=parallelogram;perimeter=parallelogramPerimeter;whiteSpace=wrap;html=1;fixedSize=1;fillColor=#3139A8;strokeColor=none;" parent="Pb5zSjwzKYjtGwkG9DzL-1" vertex="1">
          <mxGeometry x="421" y="340" width="200" height="60" as="geometry" />
        </mxCell>
        <mxCell id="Pb5zSjwzKYjtGwkG9DzL-14" value="&lt;font color=&quot;#ffffff&quot; style=&quot;font-size: 22px;&quot;&gt;Insert&lt;/font&gt;" style="rounded=0;whiteSpace=wrap;html=1;fillColor=#004243;strokeColor=none;" parent="Pb5zSjwzKYjtGwkG9DzL-1" vertex="1">
          <mxGeometry x="829" y="540" width="90" height="40" as="geometry" />
        </mxCell>
        <mxCell id="Pb5zSjwzKYjtGwkG9DzL-15" value="&lt;font color=&quot;#ffffff&quot; style=&quot;font-size: 22px;&quot;&gt;Delete&lt;/font&gt;" style="rounded=0;whiteSpace=wrap;html=1;fillColor=#004243;strokeColor=none;" parent="Pb5zSjwzKYjtGwkG9DzL-1" vertex="1">
          <mxGeometry x="959" y="540" width="90" height="40" as="geometry" />
        </mxCell>
        <mxCell id="Pb5zSjwzKYjtGwkG9DzL-16" value="&lt;font color=&quot;#ffffff&quot; style=&quot;font-size: 22px;&quot;&gt;Update&lt;/font&gt;" style="rounded=0;whiteSpace=wrap;html=1;fillColor=#004243;strokeColor=none;" parent="Pb5zSjwzKYjtGwkG9DzL-1" vertex="1">
          <mxGeometry x="1089" y="540" width="90" height="40" as="geometry" />
        </mxCell>
        <mxCell id="Pb5zSjwzKYjtGwkG9DzL-17" value="&lt;font color=&quot;#ffffff&quot; style=&quot;font-size: 22px;&quot;&gt;View&lt;/font&gt;" style="rounded=0;whiteSpace=wrap;html=1;fillColor=#004243;strokeColor=none;" parent="Pb5zSjwzKYjtGwkG9DzL-1" vertex="1">
          <mxGeometry x="1219" y="540" width="90" height="40" as="geometry" />
        </mxCell>
        <mxCell id="uwlNIfAYaYgrzwwEBrBP-11" style="edgeStyle=orthogonalEdgeStyle;rounded=0;orthogonalLoop=1;jettySize=auto;html=1;exitX=0;exitY=0.5;exitDx=0;exitDy=0;entryX=0;entryY=0.5;entryDx=0;entryDy=0;" parent="Pb5zSjwzKYjtGwkG9DzL-1" source="Pb5zSjwzKYjtGwkG9DzL-18" target="Pb5zSjwzKYjtGwkG9DzL-6" edge="1">
          <mxGeometry relative="1" as="geometry" />
        </mxCell>
        <mxCell id="Pb5zSjwzKYjtGwkG9DzL-18" value="&lt;font color=&quot;#ffffff&quot; style=&quot;font-size: 22px;&quot;&gt;Show Criminal Info&lt;/font&gt;" style="rounded=0;whiteSpace=wrap;html=1;fillColor=#004243;strokeColor=none;" parent="Pb5zSjwzKYjtGwkG9DzL-1" vertex="1">
          <mxGeometry x="107.5" y="600" width="150" height="60" as="geometry" />
        </mxCell>
        <mxCell id="Pb5zSjwzKYjtGwkG9DzL-19" style="edgeStyle=orthogonalEdgeStyle;rounded=0;orthogonalLoop=1;jettySize=auto;html=1;exitX=0.5;exitY=1;exitDx=0;exitDy=0;" parent="Pb5zSjwzKYjtGwkG9DzL-1" source="Pb5zSjwzKYjtGwkG9DzL-20" target="Pb5zSjwzKYjtGwkG9DzL-18" edge="1">
          <mxGeometry relative="1" as="geometry" />
        </mxCell>
        <mxCell id="Pb5zSjwzKYjtGwkG9DzL-20" value="&lt;font color=&quot;#ffffff&quot; style=&quot;font-size: 22px;&quot;&gt;View Criminal&lt;/font&gt;" style="rounded=0;whiteSpace=wrap;html=1;fillColor=#004243;strokeColor=none;" parent="Pb5zSjwzKYjtGwkG9DzL-1" vertex="1">
          <mxGeometry x="110" y="502" width="145" height="50" as="geometry" />
        </mxCell>
        <mxCell id="Pb5zSjwzKYjtGwkG9DzL-21" value="&lt;font color=&quot;#ffffff&quot; style=&quot;font-size: 22px;&quot;&gt;FIR&lt;/font&gt;" style="rounded=0;whiteSpace=wrap;html=1;fillColor=#004243;strokeColor=none;" parent="Pb5zSjwzKYjtGwkG9DzL-1" vertex="1">
          <mxGeometry x="872" y="285" width="90" height="40" as="geometry" />
        </mxCell>
        <mxCell id="uwlNIfAYaYgrzwwEBrBP-1" style="edgeStyle=orthogonalEdgeStyle;rounded=0;orthogonalLoop=1;jettySize=auto;html=1;exitX=0.5;exitY=1;exitDx=0;exitDy=0;" parent="Pb5zSjwzKYjtGwkG9DzL-1" source="Pb5zSjwzKYjtGwkG9DzL-22" target="Pb5zSjwzKYjtGwkG9DzL-40" edge="1">
          <mxGeometry relative="1" as="geometry" />
        </mxCell>
        <mxCell id="Pb5zSjwzKYjtGwkG9DzL-22" value="&lt;font color=&quot;#ffffff&quot; style=&quot;font-size: 22px;&quot;&gt;Criminal&lt;/font&gt;" style="rounded=0;whiteSpace=wrap;html=1;fillColor=#004243;strokeColor=none;" parent="Pb5zSjwzKYjtGwkG9DzL-1" vertex="1">
          <mxGeometry x="1019" y="285" width="100" height="40" as="geometry" />
        </mxCell>
        <mxCell id="Pb5zSjwzKYjtGwkG9DzL-23" value="&lt;font color=&quot;#ffffff&quot; style=&quot;font-size: 22px;&quot;&gt;Operator&lt;/font&gt;" style="rounded=0;whiteSpace=wrap;html=1;fillColor=#004243;strokeColor=none;" parent="Pb5zSjwzKYjtGwkG9DzL-1" vertex="1">
          <mxGeometry x="1172" y="285" width="101" height="40" as="geometry" />
        </mxCell>
        <mxCell id="Pb5zSjwzKYjtGwkG9DzL-24" value="" style="group" parent="Pb5zSjwzKYjtGwkG9DzL-1" vertex="1" connectable="0">
          <mxGeometry x="959" y="91" width="220" height="138" as="geometry" />
        </mxCell>
        <mxCell id="Pb5zSjwzKYjtGwkG9DzL-25" value="" style="strokeWidth=2;html=1;shape=mxgraph.flowchart.decision;whiteSpace=wrap;fillColor=#5383FF;strokeColor=none;" parent="Pb5zSjwzKYjtGwkG9DzL-24" vertex="1">
          <mxGeometry width="220" height="138" as="geometry" />
        </mxCell>
        <mxCell id="Pb5zSjwzKYjtGwkG9DzL-26" value="&lt;font color=&quot;#ffffff&quot; style=&quot;font-size: 22px;&quot;&gt;What do you wanna manage?&lt;/font&gt;" style="text;html=1;strokeColor=none;fillColor=none;align=center;verticalAlign=middle;whiteSpace=wrap;rounded=0;" parent="Pb5zSjwzKYjtGwkG9DzL-24" vertex="1">
          <mxGeometry x="47" y="34" width="133" height="78" as="geometry" />
        </mxCell>
        <mxCell id="Pb5zSjwzKYjtGwkG9DzL-27" value="" style="group" parent="Pb5zSjwzKYjtGwkG9DzL-1" vertex="1" connectable="0">
          <mxGeometry x="416" y="166" width="210" height="114" as="geometry" />
        </mxCell>
        <mxCell id="Pb5zSjwzKYjtGwkG9DzL-28" value="" style="strokeWidth=2;html=1;shape=mxgraph.flowchart.decision;whiteSpace=wrap;fillColor=#5383FF;strokeColor=none;" parent="Pb5zSjwzKYjtGwkG9DzL-27" vertex="1">
          <mxGeometry width="210" height="114" as="geometry" />
        </mxCell>
        <mxCell id="Pb5zSjwzKYjtGwkG9DzL-29" value="&lt;font color=&quot;#ffffff&quot; style=&quot;font-size: 22px;&quot;&gt;Administrator OR Operator?&lt;/font&gt;" style="text;html=1;strokeColor=none;fillColor=none;align=center;verticalAlign=middle;whiteSpace=wrap;rounded=0;" parent="Pb5zSjwzKYjtGwkG9DzL-27" vertex="1">
          <mxGeometry x="20" y="22" width="170" height="70" as="geometry" />
        </mxCell>
        <mxCell id="Pb5zSjwzKYjtGwkG9DzL-30" style="edgeStyle=orthogonalEdgeStyle;rounded=0;orthogonalLoop=1;jettySize=auto;html=1;exitX=0.5;exitY=1;exitDx=0;exitDy=0;entryX=0.5;entryY=0;entryDx=0;entryDy=0;entryPerimeter=0;" parent="Pb5zSjwzKYjtGwkG9DzL-1" source="Pb5zSjwzKYjtGwkG9DzL-4" target="Pb5zSjwzKYjtGwkG9DzL-28" edge="1">
          <mxGeometry relative="1" as="geometry" />
        </mxCell>
        <mxCell id="Pb5zSjwzKYjtGwkG9DzL-32" style="edgeStyle=orthogonalEdgeStyle;rounded=0;orthogonalLoop=1;jettySize=auto;html=1;exitX=0;exitY=0.5;exitDx=0;exitDy=0;exitPerimeter=0;entryX=1;entryY=0.5;entryDx=0;entryDy=0;" parent="Pb5zSjwzKYjtGwkG9DzL-1" source="Pb5zSjwzKYjtGwkG9DzL-28" target="Pb5zSjwzKYjtGwkG9DzL-12" edge="1">
          <mxGeometry relative="1" as="geometry" />
        </mxCell>
        <mxCell id="Pb5zSjwzKYjtGwkG9DzL-33" style="edgeStyle=orthogonalEdgeStyle;rounded=0;orthogonalLoop=1;jettySize=auto;html=1;exitX=0.5;exitY=1;exitDx=0;exitDy=0;entryX=0.5;entryY=0;entryDx=0;entryDy=0;entryPerimeter=0;" parent="Pb5zSjwzKYjtGwkG9DzL-1" source="Pb5zSjwzKYjtGwkG9DzL-12" target="Pb5zSjwzKYjtGwkG9DzL-9" edge="1">
          <mxGeometry relative="1" as="geometry" />
        </mxCell>
        <mxCell id="Pb5zSjwzKYjtGwkG9DzL-39" value="" style="group" parent="Pb5zSjwzKYjtGwkG9DzL-1" vertex="1" connectable="0">
          <mxGeometry x="994" y="387.87" width="150" height="88.25" as="geometry" />
        </mxCell>
        <mxCell id="Pb5zSjwzKYjtGwkG9DzL-40" value="" style="strokeWidth=2;html=1;shape=mxgraph.flowchart.decision;whiteSpace=wrap;fillColor=#5383FF;strokeColor=none;" parent="Pb5zSjwzKYjtGwkG9DzL-39" vertex="1">
          <mxGeometry width="150" height="88.25" as="geometry" />
        </mxCell>
        <mxCell id="Pb5zSjwzKYjtGwkG9DzL-41" value="&lt;font color=&quot;#ffffff&quot; style=&quot;font-size: 22px;&quot;&gt;What operation?&lt;/font&gt;" style="text;html=1;strokeColor=none;fillColor=none;align=center;verticalAlign=middle;whiteSpace=wrap;rounded=0;" parent="Pb5zSjwzKYjtGwkG9DzL-39" vertex="1">
          <mxGeometry x="14.5" y="10.120000000000005" width="125" height="58" as="geometry" />
        </mxCell>
        <mxCell id="Pb5zSjwzKYjtGwkG9DzL-45" value="&lt;font style=&quot;font-size: 18px;&quot;&gt;Administrator&lt;/font&gt;" style="text;html=1;strokeColor=none;fillColor=none;align=center;verticalAlign=middle;whiteSpace=wrap;rounded=0;" parent="Pb5zSjwzKYjtGwkG9DzL-1" vertex="1">
          <mxGeometry x="530" y="292" width="117.5" height="30" as="geometry" />
        </mxCell>
        <mxCell id="Pb5zSjwzKYjtGwkG9DzL-46" value="&lt;font style=&quot;font-size: 18px;&quot;&gt;Operator&lt;/font&gt;" style="text;html=1;strokeColor=none;fillColor=none;align=center;verticalAlign=middle;whiteSpace=wrap;rounded=0;" parent="Pb5zSjwzKYjtGwkG9DzL-1" vertex="1">
          <mxGeometry x="322" y="194" width="94" height="27" as="geometry" />
        </mxCell>
        <mxCell id="Pb5zSjwzKYjtGwkG9DzL-48" value="&lt;font color=&quot;#ffffff&quot; style=&quot;font-size: 22px;&quot;&gt;Logout?&lt;/font&gt;" style="strokeWidth=2;html=1;shape=mxgraph.flowchart.decision;whiteSpace=wrap;fillColor=#5383FF;strokeColor=none;" parent="Pb5zSjwzKYjtGwkG9DzL-1" vertex="1">
          <mxGeometry x="553" y="708" width="114" height="76" as="geometry" />
        </mxCell>
        <mxCell id="oImTvYOyCMajW2KjbK-M-0" style="edgeStyle=orthogonalEdgeStyle;rounded=0;orthogonalLoop=1;jettySize=auto;html=1;exitX=0.5;exitY=1;exitDx=0;exitDy=0;exitPerimeter=0;" parent="Pb5zSjwzKYjtGwkG9DzL-1" source="Pb5zSjwzKYjtGwkG9DzL-28" target="Pb5zSjwzKYjtGwkG9DzL-13" edge="1">
          <mxGeometry relative="1" as="geometry" />
        </mxCell>
        <mxCell id="oImTvYOyCMajW2KjbK-M-1" style="edgeStyle=orthogonalEdgeStyle;rounded=0;orthogonalLoop=1;jettySize=auto;html=1;exitX=0.5;exitY=1;exitDx=0;exitDy=0;entryX=0.5;entryY=0;entryDx=0;entryDy=0;entryPerimeter=0;" parent="Pb5zSjwzKYjtGwkG9DzL-1" source="Pb5zSjwzKYjtGwkG9DzL-13" target="Pb5zSjwzKYjtGwkG9DzL-11" edge="1">
          <mxGeometry relative="1" as="geometry" />
        </mxCell>
        <mxCell id="oImTvYOyCMajW2KjbK-M-4" value="&lt;font style=&quot;font-size: 18px;&quot;&gt;Yes&lt;/font&gt;" style="text;html=1;strokeColor=none;fillColor=none;align=center;verticalAlign=middle;whiteSpace=wrap;rounded=0;" parent="Pb5zSjwzKYjtGwkG9DzL-1" vertex="1">
          <mxGeometry x="180" y="370" width="60" height="30" as="geometry" />
        </mxCell>
        <mxCell id="oImTvYOyCMajW2KjbK-M-5" value="&lt;font style=&quot;font-size: 18px;&quot;&gt;No&lt;/font&gt;" style="text;html=1;strokeColor=none;fillColor=none;align=center;verticalAlign=middle;whiteSpace=wrap;rounded=0;" parent="Pb5zSjwzKYjtGwkG9DzL-1" vertex="1">
          <mxGeometry x="47.5" y="300" width="60" height="30" as="geometry" />
        </mxCell>
        <mxCell id="uwlNIfAYaYgrzwwEBrBP-0" value="" style="endArrow=classic;startArrow=classic;html=1;rounded=0;exitX=0.5;exitY=0;exitDx=0;exitDy=0;entryX=0.5;entryY=0;entryDx=0;entryDy=0;" parent="Pb5zSjwzKYjtGwkG9DzL-1" source="Pb5zSjwzKYjtGwkG9DzL-21" target="Pb5zSjwzKYjtGwkG9DzL-23" edge="1">
          <mxGeometry width="50" height="50" relative="1" as="geometry">
            <mxPoint x="1009" y="275" as="sourcePoint" />
            <mxPoint x="1059" y="225" as="targetPoint" />
            <Array as="points">
              <mxPoint x="917" y="250" />
              <mxPoint x="1069" y="250" />
              <mxPoint x="1223" y="250" />
            </Array>
          </mxGeometry>
        </mxCell>
        <mxCell id="uwlNIfAYaYgrzwwEBrBP-2" value="" style="endArrow=none;html=1;rounded=0;exitX=0.5;exitY=1;exitDx=0;exitDy=0;entryX=0.5;entryY=1;entryDx=0;entryDy=0;" parent="Pb5zSjwzKYjtGwkG9DzL-1" source="Pb5zSjwzKYjtGwkG9DzL-21" target="Pb5zSjwzKYjtGwkG9DzL-23" edge="1">
          <mxGeometry width="50" height="50" relative="1" as="geometry">
            <mxPoint x="1049" y="440" as="sourcePoint" />
            <mxPoint x="1099" y="390" as="targetPoint" />
            <Array as="points">
              <mxPoint x="917" y="350" />
              <mxPoint x="1069" y="350" />
              <mxPoint x="1223" y="350" />
            </Array>
          </mxGeometry>
        </mxCell>
        <mxCell id="uwlNIfAYaYgrzwwEBrBP-3" style="edgeStyle=orthogonalEdgeStyle;rounded=0;orthogonalLoop=1;jettySize=auto;html=1;exitX=0.5;exitY=1;exitDx=0;exitDy=0;exitPerimeter=0;entryX=0.5;entryY=0;entryDx=0;entryDy=0;" parent="Pb5zSjwzKYjtGwkG9DzL-1" source="Pb5zSjwzKYjtGwkG9DzL-40" target="Pb5zSjwzKYjtGwkG9DzL-15" edge="1">
          <mxGeometry relative="1" as="geometry">
            <Array as="points">
              <mxPoint x="1069" y="510" />
              <mxPoint x="1004" y="510" />
            </Array>
          </mxGeometry>
        </mxCell>
        <mxCell id="uwlNIfAYaYgrzwwEBrBP-4" value="" style="endArrow=classic;startArrow=classic;html=1;rounded=0;entryX=0.5;entryY=0;entryDx=0;entryDy=0;exitX=0.5;exitY=0;exitDx=0;exitDy=0;" parent="Pb5zSjwzKYjtGwkG9DzL-1" source="Pb5zSjwzKYjtGwkG9DzL-14" target="Pb5zSjwzKYjtGwkG9DzL-17" edge="1">
          <mxGeometry width="50" height="50" relative="1" as="geometry">
            <mxPoint x="1129" y="550" as="sourcePoint" />
            <mxPoint x="1179" y="500" as="targetPoint" />
            <Array as="points">
              <mxPoint x="874" y="510" />
              <mxPoint x="1069" y="510" />
              <mxPoint x="1264" y="510" />
            </Array>
          </mxGeometry>
        </mxCell>
        <mxCell id="uwlNIfAYaYgrzwwEBrBP-5" value="" style="endArrow=classic;html=1;rounded=0;entryX=0.5;entryY=0;entryDx=0;entryDy=0;" parent="Pb5zSjwzKYjtGwkG9DzL-1" target="Pb5zSjwzKYjtGwkG9DzL-16" edge="1">
          <mxGeometry width="50" height="50" relative="1" as="geometry">
            <mxPoint x="1134" y="510" as="sourcePoint" />
            <mxPoint x="1139" y="490" as="targetPoint" />
          </mxGeometry>
        </mxCell>
        <mxCell id="uwlNIfAYaYgrzwwEBrBP-9" value="&lt;font color=&quot;#ffffff&quot;&gt;&lt;span style=&quot;font-size: 22px;&quot;&gt;Continue?&lt;/span&gt;&lt;/font&gt;" style="strokeWidth=2;html=1;shape=mxgraph.flowchart.decision;whiteSpace=wrap;fillColor=#5383FF;strokeColor=none;" parent="Pb5zSjwzKYjtGwkG9DzL-1" vertex="1">
          <mxGeometry x="1006.5" y="624" width="125" height="76" as="geometry" />
        </mxCell>
        <mxCell id="uwlNIfAYaYgrzwwEBrBP-12" style="edgeStyle=orthogonalEdgeStyle;rounded=0;orthogonalLoop=1;jettySize=auto;html=1;exitX=1;exitY=0.5;exitDx=0;exitDy=0;entryX=0.5;entryY=0;entryDx=0;entryDy=0;entryPerimeter=0;" parent="Pb5zSjwzKYjtGwkG9DzL-1" source="Pb5zSjwzKYjtGwkG9DzL-6" target="Pb5zSjwzKYjtGwkG9DzL-48" edge="1">
          <mxGeometry relative="1" as="geometry">
            <Array as="points">
              <mxPoint x="380" y="432" />
              <mxPoint x="380" y="640" />
              <mxPoint x="610" y="640" />
              <mxPoint x="610" y="700" />
            </Array>
          </mxGeometry>
        </mxCell>
        <mxCell id="uwlNIfAYaYgrzwwEBrBP-15" value="" style="endArrow=none;html=1;rounded=0;entryX=0.25;entryY=1;entryDx=0;entryDy=0;" parent="Pb5zSjwzKYjtGwkG9DzL-1" target="Pb5zSjwzKYjtGwkG9DzL-7" edge="1">
          <mxGeometry width="50" height="50" relative="1" as="geometry">
            <mxPoint x="610" y="640" as="sourcePoint" />
            <mxPoint x="750" y="310" as="targetPoint" />
            <Array as="points">
              <mxPoint x="790" y="640" />
            </Array>
          </mxGeometry>
        </mxCell>
        <mxCell id="uwlNIfAYaYgrzwwEBrBP-16" value="&lt;font color=&quot;#ffffff&quot; style=&quot;font-size: 22px;&quot;&gt;End&lt;/font&gt;" style="strokeWidth=2;html=1;shape=mxgraph.flowchart.terminator;whiteSpace=wrap;fillColor=#06C892;strokeColor=none;" parent="Pb5zSjwzKYjtGwkG9DzL-1" vertex="1">
          <mxGeometry x="570" y="820" width="80" height="40" as="geometry" />
        </mxCell>
        <mxCell id="uwlNIfAYaYgrzwwEBrBP-17" style="edgeStyle=orthogonalEdgeStyle;rounded=0;orthogonalLoop=1;jettySize=auto;html=1;exitX=0.5;exitY=1;exitDx=0;exitDy=0;exitPerimeter=0;entryX=0.5;entryY=0;entryDx=0;entryDy=0;entryPerimeter=0;" parent="Pb5zSjwzKYjtGwkG9DzL-1" source="Pb5zSjwzKYjtGwkG9DzL-48" target="uwlNIfAYaYgrzwwEBrBP-16" edge="1">
          <mxGeometry relative="1" as="geometry" />
        </mxCell>
        <mxCell id="uwlNIfAYaYgrzwwEBrBP-18" style="edgeStyle=orthogonalEdgeStyle;rounded=0;orthogonalLoop=1;jettySize=auto;html=1;exitX=0.5;exitY=1;exitDx=0;exitDy=0;exitPerimeter=0;entryX=0.5;entryY=0;entryDx=0;entryDy=0;" parent="Pb5zSjwzKYjtGwkG9DzL-1" source="Pb5zSjwzKYjtGwkG9DzL-25" target="Pb5zSjwzKYjtGwkG9DzL-22" edge="1">
          <mxGeometry relative="1" as="geometry" />
        </mxCell>
        <mxCell id="uwlNIfAYaYgrzwwEBrBP-19" value="&lt;font style=&quot;font-size: 18px;&quot;&gt;Yes&lt;/font&gt;" style="text;html=1;strokeColor=none;fillColor=none;align=center;verticalAlign=middle;whiteSpace=wrap;rounded=0;" parent="Pb5zSjwzKYjtGwkG9DzL-1" vertex="1">
          <mxGeometry x="468" y="517" width="60" height="30" as="geometry" />
        </mxCell>
        <mxCell id="uwlNIfAYaYgrzwwEBrBP-20" value="&lt;font style=&quot;font-size: 18px;&quot;&gt;No&lt;/font&gt;" style="text;html=1;strokeColor=none;fillColor=none;align=center;verticalAlign=middle;whiteSpace=wrap;rounded=0;" parent="Pb5zSjwzKYjtGwkG9DzL-1" vertex="1">
          <mxGeometry x="600" y="446.12" width="60" height="30" as="geometry" />
        </mxCell>
      </root>
    </mxGraphModel>
  </diagram>
</mxfile>
